<svg width="84" height="84" viewBox="0 0 84 84" version="1.1" xmlns="http://www.w3.org/2000/svg" xmlns:xlink="http://www.w3.org/1999/xlink">
  <g id="Canvas" transform="translate(11495 -1193)">
    <g id="Vector">
      <use xlink:href="#path0_fill" transform="translate(-11495 1193)" fill="#707D87" />
    </g>
  </g>
  <defs>
    <path id="path0_fill" d="M 12.3119 71.6934C 12.4193 71.8007 12.5266 71.8365 12.5982 71.9438C 14.4235 73.7325 16.392 75.3782 18.5036 76.8092C 18.7542 76.9881 19.0047 77.0954 19.2552 77.2743C 21.2953 78.598 23.4069 79.7428 25.6617 80.7087C 25.9122 80.816 26.1986 80.8876 26.4849 80.9949C 28.7755 81.8893 31.1376 82.6405 33.6072 83.1414C 33.7503 83.1772 33.9293 83.1772 34.0724 83.213C 36.6493 83.7138 39.262 84 41.9821 84C 44.7022 84 47.3507 83.7138 49.8918 83.213C 50.0349 83.1772 50.2139 83.1772 50.3571 83.1414C 52.8266 82.6405 55.1888 81.8893 57.4793 80.9949C 57.7299 80.8876 58.0162 80.816 58.2667 80.7087C 60.5215 79.7428 62.6689 78.5622 64.709 77.2743C 64.9237 77.1312 65.1743 76.9881 65.4248 76.845C 67.5722 75.3782 69.5765 73.7325 71.4376 71.908C 71.5092 71.8365 71.5807 71.8007 71.6523 71.7291C 71.6523 71.7291 71.6523 71.6934 71.6881 71.6934C 79.2757 64.0732 84 53.5911 84 42.0358C 84 18.8177 65.1385 0 41.9821 0C 18.8257 0 0 18.8177 0 41.9642C 0 53.5196 4.68854 64.0017 12.2761 71.6218C 12.3119 71.6218 12.3119 71.6576 12.3119 71.6934ZM 62.6331 69.2607C 61.8458 69.8688 61.0226 70.477 60.1994 70.9779C 59.5194 71.4072 58.7678 71.7649 58.052 72.1227C 48.138 77.2027 35.862 77.2027 25.948 72.1227C 25.2322 71.7291 24.4806 71.4072 23.8006 70.9779C 22.9416 70.4412 22.1542 69.8331 21.3669 69.2607C 20.7584 68.7956 20.1858 68.3305 19.6131 67.8296C 23.6574 59.1363 32.3187 53.448 41.9821 53.448C 51.6455 53.448 60.3068 59.1363 64.3511 67.8296C 63.8142 68.3305 63.2416 68.7956 62.6331 69.2607ZM 30.5292 34.3441C 30.5292 28.0477 35.683 22.8961 41.9821 22.8961C 48.2812 22.8961 53.435 28.0477 53.435 34.3441C 53.435 40.6405 48.2812 45.7922 41.9821 45.7922C 35.683 45.7922 30.5292 40.6405 30.5292 34.3441ZM 41.9821 7.6201C 60.9152 7.6201 76.3409 23.0392 76.3409 41.9642C 76.3409 49.4055 73.9071 56.2743 69.827 61.9267C 66.2838 55.9165 60.951 51.23 54.6519 48.5111C 58.553 45.0051 61.0584 39.9966 61.0584 34.3441C 61.0584 23.8262 52.5045 15.276 41.9821 15.276C 31.4597 15.276 22.9058 23.8262 22.9058 34.3441C 22.9058 39.9966 25.4112 45.0051 29.3123 48.5111C 23.0132 51.23 17.6804 55.9165 14.1372 61.9267C 10.0929 56.2743 7.62335 49.4412 7.62335 41.9642C 7.62335 23.0392 23.049 7.6201 41.9821 7.6201Z" />
  </defs>
</svg>
