<svg width="84" height="84" viewBox="0 0 84 84" version="1.1" xmlns="http://www.w3.org/2000/svg" xmlns:xlink="http://www.w3.org/1999/xlink">
  <g id="Canvas" transform="translate(11865 -1183)">
    <g id="Group">
      <g id="Group">
        <g id="Vector">
          <use xlink:href="#path0_fill" transform="translate(-11835.4 1200.57)" fill="#707D87" />
        </g>
        <g id="Vector">
          <use xlink:href="#path1_fill" transform="translate(-11846.1 1227.46)" fill="#707D87" />
        </g>
      </g>
    </g>
    <g id="Vector">
      <use xlink:href="#path2_fill" transform="translate(-11865 1183)" fill="#707D87" />
    </g>
  </g>
  <defs>
    <path id="path0_fill" d="M 12.3614 24.7229C 19.2289 24.7229 24.7229 19.1566 24.7229 12.3614C 24.7229 5.56627 19.2289 -5.51523e-07 12.3614 -5.51523e-07C 5.49398 -5.51523e-07 1.10305e-06 5.56627 1.10305e-06 12.3614C 1.10305e-06 19.1566 5.49398 24.7229 12.3614 24.7229ZM 12.3614 3.25301C 17.3494 3.25301 21.4699 7.3735 21.4699 12.3614C 21.4699 17.3494 17.3494 21.4699 12.3614 21.4699C 7.37349 21.4699 3.25301 17.3494 3.25301 12.3614C 3.25301 7.3735 7.37349 3.25301 12.3614 3.25301Z" />
    <path id="path1_fill" d="M 1.59036 17.2048L 44.6024 17.2048C 45.5422 17.2048 46.2651 16.4819 46.2651 15.5422C 46.2651 7.01205 39.3253 0 30.7229 0L 15.5422 0C 7.01205 0 2.75761e-07 6.93976 2.75761e-07 15.5422C 2.75761e-07 16.4819 0.722891 17.2048 1.59036 17.2048ZM 15.5422 3.3253L 30.7229 3.3253C 36.9398 3.3253 42.0723 7.95181 42.8675 13.9518L 3.39759 13.9518C 4.19277 7.95181 9.3253 3.3253 15.5422 3.3253Z" />
    <path id="path2_fill" d="M 42 84C 65.2048 84 84 65.1325 84 42C 84 18.8675 65.2048 0 42 0C 18.7952 0 0 18.7952 0 42C 0 65.2048 18.7952 84 42 84ZM 42 3.10843C 63.3976 3.10843 80.8916 20.5301 80.8916 42C 80.8916 63.4699 63.4699 80.8916 42 80.8916C 20.5301 80.8916 3.10843 63.4699 3.10843 42C 3.10843 20.5301 20.6024 3.10843 42 3.10843Z" />
  </defs>
</svg>
