<svg width="15" height="14" viewBox="0 0 15 14" version="1.1" xmlns="http://www.w3.org/2000/svg" xmlns:xlink="http://www.w3.org/1999/xlink">
  <g id="Canvas" transform="translate(3142 -16)">
    <g id="Vector">
      <use xlink:href="#path0_fill" transform="translate(-3142 16)" fill="#707D87" />
    </g>
  </g>
  <defs>
    <path id="path0_fill" d="M 0.532831 14L 14.4672 14C 14.7578 14 15 13.7716 15 13.4615L 15 1.5338C 15 1.24009 14.7739 0.995338 14.4672 0.995338L 11.8515 0.995338L 11.8515 0.538462C 11.8515 0.244755 11.6254 0 11.3186 0C 11.028 0 10.7858 0.228438 10.7858 0.538462L 10.7858 0.995338L 4.29494 0.995338L 4.29494 0.538462C 4.29494 0.244755 4.06889 0 3.76211 0C 3.47147 0 3.22928 0.228438 3.22928 0.538462L 3.22928 0.995338L 0.532831 0.995338C 0.22605 0.995338 0 1.22378 0 1.5338L 0 13.4942C 0 13.7716 0.242196 14 0.532831 14ZM 1.06566 2.05594L 3.24543 2.05594L 3.24543 2.34965C 3.24543 2.64336 3.47147 2.88811 3.77826 2.88811C 4.06889 2.88811 4.31109 2.65967 4.31109 2.34965L 4.31109 2.05594L 10.8019 2.05594L 10.8019 2.34965C 10.8019 2.64336 11.028 2.88811 11.3348 2.88811C 11.6254 2.88811 11.8676 2.65967 11.8676 2.34965L 11.8676 2.05594L 13.9666 2.05594L 13.9666 3.44289L 1.06566 3.44289L 1.06566 2.05594ZM 1.06566 4.51981L 13.9505 4.51981L 13.9505 12.9557L 1.06566 12.9557L 1.06566 4.51981Z" />
  </defs>
</svg>
