<svg width="13" height="13" viewBox="0 0 13 13" version="1.1" xmlns="http://www.w3.org/2000/svg" xmlns:xlink="http://www.w3.org/1999/xlink">
  <g id="Canvas" transform="translate(4621 -1353)">
    <g id="Vector">
      <use xlink:href="#path0_fill" transform="translate(-4620.32 1353.85)" fill="#FA0D60" />
    </g>
    <g id="Vector">
      <use xlink:href="#path1_fill" transform="translate(-4617.73 1358.22)" fill="#FA0D60" />
    </g>
    <g id="Vector">
      <use xlink:href="#path1_fill" transform="translate(-4617.73 1360.08)" fill="#FA0D60" />
    </g>
    <g id="Vector">
      <use xlink:href="#path2_fill" transform="translate(-4617.73 1361.94)" fill="#FA0D60" />
    </g>
    <g id="Vector">
      <use xlink:href="#path3_fill" transform="translate(-4615.22 1361.94)" fill="#FA0D60" />
    </g>
    <g id="Vector">
      <use xlink:href="#path4_fill" transform="translate(-4615.22 1360.08)" fill="#FA0D60" />
    </g>
    <g id="Vector">
      <use xlink:href="#path4_fill" transform="translate(-4615.22 1358.22)" fill="#FA0D60" />
    </g>
    <g id="Vector">
      <use xlink:href="#path5_fill" transform="translate(-4612.63 1361.94)" fill="#FA0D60" />
    </g>
    <g id="Vector">
      <use xlink:href="#path6_fill" transform="translate(-4612.63 1360.08)" fill="#FA0D60" />
    </g>
    <g id="Vector">
      <use xlink:href="#path6_fill" transform="translate(-4612.63 1358.22)" fill="#FA0D60" />
    </g>
  </g>
  <defs>
    <path id="path0_fill" d="M 10.77 1.13316L 9.15043 1.13316L 9.15043 0.404699C 9.15043 0.161879 8.98848 0 8.74555 0C 8.58359 0 8.34066 0.161879 8.34066 0.404699L 8.34066 1.13316L 6.23525 1.13316L 6.23525 0.404699C 6.23525 0.161879 6.0733 0 5.83036 0C 5.66841 0 5.50645 0.161879 5.50645 0.404699L 5.50645 1.13316L 3.32007 1.13316L 3.32007 0.404699C 3.32007 0.161879 3.15811 0 2.91518 0C 2.75323 0 2.59127 0.161879 2.59127 0.404699L 2.59127 1.13316L 0.971727 1.13316C 0.404886 1.13316 0 1.53786 0 2.10443L 0 10.765C 0 11.3316 0.404886 11.7363 0.971727 11.7363L 10.77 11.7363C 11.3368 11.7363 11.7417 11.3316 11.7417 10.765L 11.7417 2.10443C 11.7417 1.53786 11.2558 1.13316 10.77 1.13316ZM 11.0129 10.765C 11.0129 10.9269 10.9319 11.0078 10.77 11.0078L 0.971727 11.0078C 0.809773 11.0078 0.728795 10.9269 0.728795 10.765L 0.728795 2.10443C 0.728795 1.94255 0.809773 1.86161 0.971727 1.86161L 2.59127 1.86161L 2.59127 2.59007C 2.59127 2.75195 2.75323 2.99477 2.99616 2.99477C 3.23909 2.99477 3.40105 2.83289 3.40105 2.59007L 3.40105 1.86161L 5.58743 1.86161L 5.58743 2.59007C 5.58743 2.75195 5.74939 2.99477 5.99232 2.99477C 6.15427 2.99477 6.3972 2.83289 6.3972 2.59007L 6.3972 1.86161L 8.58359 1.86161L 8.58359 2.59007C 8.58359 2.75195 8.74555 2.99477 8.98848 2.99477C 9.23141 2.99477 9.39336 2.83289 9.39336 2.59007L 9.39336 1.86161L 11.0129 1.86161C 11.1749 1.86161 11.2558 1.94255 11.2558 2.10443L 11.2558 10.765L 11.0129 10.765Z" />
    <path id="path1_fill" d="M 1.45759 0L 0 0L 0 1.13316L 1.45759 1.13316L 1.45759 0Z" />
    <path id="path2_fill" d="M 1.45759 0L 0 0L 0 1.13316L 1.45759 1.13316L 1.45759 0Z" />
    <path id="path3_fill" d="M 1.45759 0L 0 0L 0 1.13316L 1.45759 1.13316L 1.45759 0Z" />
    <path id="path4_fill" d="M 1.45759 0L 0 0L 0 1.13316L 1.45759 1.13316L 1.45759 0Z" />
    <path id="path5_fill" d="M 1.45759 0L 0 0L 0 1.13316L 1.45759 1.13316L 1.45759 0Z" />
    <path id="path6_fill" d="M 1.45759 0L 0 0L 0 1.13316L 1.45759 1.13316L 1.45759 0Z" />
  </defs>
</svg>
