<svg width="12" height="12" viewBox="0 0 12 12" version="1.1" xmlns="http://www.w3.org/2000/svg" xmlns:xlink="http://www.w3.org/1999/xlink">
  <g id="Canvas" transform="translate(10952 375)">
    <g id="Group">
      <g id="Close 1">
        <g id="Vector">
          <use xlink:href="#path0_fill" transform="translate(-10952 -375)" fill="#707D87" />
        </g>
      </g>
    </g>
  </g>
  <defs>
    <path id="path0_fill" d="M 7.42817 6.00282L 11.7042 1.72676C 12.0986 1.33239 12.0986 0.695775 11.7042 0.301408C 11.3099 -0.0929577 10.6732 -0.0929577 10.2789 0.301408L 6.00282 4.57746L 1.72676 0.295775C 1.33239 -0.0985916 0.695775 -0.0985916 0.301408 0.295775C -0.0929577 0.690141 -0.0929577 1.32676 0.301408 1.72113L 4.57746 5.99718L 0.295775 10.2789C -0.0985916 10.6732 -0.0985916 11.3099 0.295775 11.7042C 0.690141 12.0986 1.32676 12.0986 1.72113 11.7042L 5.99718 7.42817L 10.2732 11.7042C 10.6676 12.0986 11.3042 12.0986 11.6986 11.7042C 12.093 11.3099 12.093 10.6732 11.6986 10.2789L 7.42817 6.00282Z" />
  </defs>
</svg>
