<svg width="46" height="36" viewBox="0 0 46 36" version="1.1" xmlns="http://www.w3.org/2000/svg" xmlns:xlink="http://www.w3.org/1999/xlink">
  <g id="Canvas" transform="translate(11493 220)">
    <g id="Vector">
      <use xlink:href="#path0_fill" transform="translate(-11492.4 -219.767)" fill="#707D87" />
    </g>
    <g id="Vector">
      <use xlink:href="#path1_fill" transform="translate(-11484.4 -211.221)" fill="#707D87" />
    </g>
    <g id="Vector">
      <use xlink:href="#path2_fill" transform="translate(-11487.8 -206.723)" fill="#707D87" />
    </g>
  </g>
  <defs>
    <path id="path0_fill" d="M 43.9679 0L 0.787149 0C 0.33735 0 -4.28962e-07 0.33735 -4.28962e-07 0.787149L -4.28962e-07 34.747C -4.28962e-07 35.1968 0.33735 35.5341 0.787149 35.5341L 43.9679 35.5341C 44.4177 35.5341 44.755 35.1968 44.755 34.747L 44.755 0.787149C 44.755 0.33735 44.4177 0 43.9679 0ZM 43.1807 33.9598L 1.5743 33.9598L 1.5743 1.5743L 43.2932 1.5743L 43.2932 33.9598L 43.1807 33.9598Z" />
    <path id="path1_fill" d="M 4.38554 8.54619C 6.74699 8.54619 8.65864 6.63454 8.65864 4.27309C 8.65864 1.91165 6.74699 -1.71585e-06 4.38554 -1.71585e-06C 2.0241 -1.71585e-06 0 1.91165 0 4.27309C 0 6.63454 2.0241 8.54619 4.38554 8.54619ZM 4.38554 1.46185C 5.95984 1.46185 7.19679 2.6988 7.19679 4.27309C 7.19679 5.84739 5.95984 7.08434 4.38554 7.08434C 2.81125 7.08434 1.5743 5.84739 1.5743 4.27309C 1.5743 2.6988 2.81125 1.46185 4.38554 1.46185Z" />
    <path id="path2_fill" d="M 0.831441 17.8795C 1.05634 17.8795 1.16879 17.7671 1.39369 17.6546L 13.9881 6.52209L 21.972 14.506C 22.3094 14.8434 22.7591 14.8434 23.0965 14.506C 23.4338 14.1687 23.4338 13.7189 23.0965 13.3815L 19.3857 9.67068L 26.47 1.91165L 35.1286 9.89558C 35.466 10.2329 35.9158 10.1205 36.2531 9.89558C 36.5905 9.55823 36.478 9.10844 36.2531 8.77109L 27.0322 0.224899C 26.9198 0.112449 26.6949 -1.71585e-06 26.47 -1.71585e-06C 26.2451 -1.71585e-06 26.0202 0.112449 25.9077 0.224899L 18.3736 8.54619L 14.5503 4.94779C 14.213 4.61044 13.7632 4.61044 13.5383 4.94779L 0.269192 16.5301C -0.0681576 16.8675 -0.0681601 17.3173 0.156739 17.6546C 0.381639 17.7671 0.606541 17.8795 0.831441 17.8795Z" />
  </defs>
</svg>
