<svg width="40" height="40" viewBox="0 0 40 40" version="1.1" xmlns="http://www.w3.org/2000/svg" xmlns:xlink="http://www.w3.org/1999/xlink">
  <g id="Canvas" transform="translate(11469 554)">
    <g id="Vector">
      <use xlink:href="#path0_fill" transform="translate(-11447.3 -543.905)" fill="#A7BBC9" />
    </g>
    <g id="Vector">
      <use xlink:href="#path1_fill" transform="translate(-11469 -554)" fill="#A7BBC9" />
    </g>
  </g>
  <defs>
    <path id="path0_fill" d="M 2.2739 4.5478C 3.52974 4.5478 4.5478 3.52974 4.5478 2.2739C 4.5478 1.01806 3.52974 0 2.2739 0C 1.01806 0 0 1.01806 0 2.2739C 0 3.52974 1.01806 4.5478 2.2739 4.5478Z" />
    <path id="path1_fill" d="M 0.0344531 38.932C 0.0344531 38.932 0.0344531 38.9664 0.0344531 38.932C 0.0344531 38.9664 0.0344531 38.9664 0.0344531 38.932C 0.103359 39.0353 0.137812 39.1387 0.172265 39.2076C 0.172265 39.242 0.206718 39.242 0.206718 39.2765C 0.206718 39.3109 0.241171 39.3109 0.241171 39.3454L 0.275624 39.3798C 0.310078 39.4488 0.378984 39.4832 0.413437 39.5521L 0.44789 39.5866C 0.482343 39.621 0.482343 39.621 0.516796 39.6555C 0.551249 39.6555 0.551249 39.6899 0.551249 39.6899C 0.585702 39.7244 0.620155 39.7244 0.654608 39.7588L 0.689061 39.7933C 0.689061 39.7933 0.723514 39.7933 0.723514 39.8277C 0.757967 39.8622 0.826873 39.8622 0.861326 39.8966C 0.895779 39.8966 0.89578 39.8966 0.930233 39.9311C 0.964686 39.9311 0.999139 39.9655 0.999139 39.9655C 1.1025 40 1.20586 40 1.30922 40L 38.5874 40C 39.3798 40 40 39.3798 40 38.5874L 40 29.2851L 40 1.41258C 40 0.620155 39.3798 0 38.5874 0L 1.41258 0C 0.620155 0 0 0.620155 0 1.41258L 0 29.2162L 0 38.5185C 0 38.6219 0.0344531 38.7597 0.0344531 38.8631C 0.0344531 38.8975 0.0344531 38.932 0.0344531 38.932ZM 37.2782 37.1404L 6.13264 37.1404L 29.1473 22.0844L 37.2782 29.8363L 37.2782 37.1404ZM 2.82515 2.82515L 37.2782 2.82515L 37.2782 25.9432L 30.2842 19.2593C 29.8019 18.8114 29.0784 18.7425 28.5271 19.087L 21.9466 23.4281L 17.3643 18.8114C 16.882 18.329 16.1585 18.2601 15.6072 18.6047L 2.82515 26.6667L 2.82515 2.82515ZM 2.82515 30.0086L 16.1585 21.6021L 19.5349 25.0129L 2.82515 35.9345L 2.82515 30.0086Z" />
  </defs>
</svg>
