<svg width="13" height="14" viewBox="0 0 13 14" version="1.1" xmlns="http://www.w3.org/2000/svg" xmlns:xlink="http://www.w3.org/1999/xlink">
  <g id="Canvas" transform="translate(3063 1488)">
    <g id="Group">
      <g id="Vector">
        <use xlink:href="#path0_fill" transform="matrix(-1 1.22465e-16 -1.22465e-16 -1 -3050 -1474)" fill="#A1ACB5" />
      </g>
      <g id="Vector">
        <use xlink:href="#path1_fill" transform="matrix(-1 1.22465e-16 -1.22465e-16 -1 -3055.99 -1477.52)" fill="#A1ACB5" />
      </g>
      <g id="Vector">
        <use xlink:href="#path2_fill" transform="matrix(-1 1.22465e-16 -1.22465e-16 -1 -3055.81 -1482.81)" fill="#A1ACB5" />
      </g>
    </g>
  </g>
  <defs>
    <path id="path0_fill" d="M 6.5 14C 2.90723 14 0 10.8691 0 7C 0 3.13086 2.90723 0 6.5 0C 10.0928 0 13 3.13086 13 7C 13 10.8691 10.0928 14 6.5 14ZM 6.5 1.09375C 3.46836 1.09375 1.01562 3.73516 1.01562 7C 1.01562 10.2648 3.46836 12.9062 6.5 12.9062C 9.53164 12.9062 11.9844 10.2648 11.9844 7C 11.9844 3.73516 9.53164 1.09375 6.5 1.09375Z" />
    <path id="path1_fill" d="M 0.507812 4.61563C 0.228516 4.61563 0 4.36953 0 4.06875L 0 0.546875C 0 0.246094 0.228516 -1.66893e-07 0.507812 -1.66893e-07C 0.787109 -1.66893e-07 1.01562 0.246094 1.01562 0.546875L 1.01562 4.06875C 1.01562 4.36953 0.787109 4.61563 0.507812 4.61563Z" />
    <path id="path2_fill" d="M 0.685547 1.47656C 1.06416 1.47656 1.37109 1.14602 1.37109 0.738282C 1.37109 0.33054 1.06416 0 0.685547 0C 0.30693 0 0 0.33054 0 0.738282C 0 1.14602 0.30693 1.47656 0.685547 1.47656Z" />
  </defs>
</svg>
