<svg width="9" height="10" viewBox="0 0 9 10" version="1.1" xmlns="http://www.w3.org/2000/svg" xmlns:xlink="http://www.w3.org/1999/xlink">
  <title>02 Design Systems &#38; Components</title>
  <desc>Created using Figma</desc>
  <g id="Canvas" transform="translate(4649 -3061)">
    <g id="Vector">
      <use xlink:href="#path0_fill" transform="translate(-4647.77 3068.1)" fill="#D5DCE0" />
    </g>
    <g id="Vector">
      <use xlink:href="#path1_fill" transform="translate(-4649 3065.19)" fill="#D5DCE0" />
    </g>
    <g id="Vector">
      <use xlink:href="#path2_fill" transform="translate(-4642.16 3062.9)" fill="#D5DCE0" />
    </g>
    <g id="Vector">
      <use xlink:href="#path3_fill" transform="translate(-4647.97 3062.31)" fill="#D5DCE0" />
    </g>
    <g id="Vector">
      <use xlink:href="#path4_fill" transform="translate(-4641.11 3065.61)" fill="#D5DCE0" />
    </g>
    <g id="Vector">
      <use xlink:href="#path5_fill" transform="translate(-4642.34 3068.3)" fill="#D5DCE0" />
    </g>
    <g id="Vector">
      <use xlink:href="#path6_fill" transform="translate(-4645.06 3069.41)" fill="#D5DCE0" />
    </g>
    <g id="Vector">
      <use xlink:href="#path7_fill" transform="translate(-4645.43 3061)" fill="#D5DCE0" />
    </g>
  </g>
  <defs>
    <path id="path0_fill" d="M 0.835329 0C 0.601796 0 0.404192 0.0863721 0.242515 0.259117C 0.0808383 0.431862 3.42637e-08 0.642995 3.42637e-08 0.892515C 3.42637e-08 1.14203 0.0808383 1.35317 0.242515 1.52591C 0.404192 1.69866 0.601796 1.78503 0.835329 1.78503C 1.06886 1.78503 1.26647 1.69866 1.42814 1.52591C 1.58982 1.35317 1.67964 1.14203 1.67964 0.892515C 1.67964 0.642995 1.5988 0.431862 1.42814 0.259117C 1.26647 0.095969 1.06886 0 0.835329 0Z" />
    <path id="path1_fill" d="M 1.88623 1.00768C 1.88623 0.729367 1.79641 0.49904 1.60778 0.297505C 1.42814 0.105566 1.20359 7.32188e-08 0.943114 7.32188e-08C 0.682635 7.32188e-08 0.467066 0.0959692 0.278443 0.297505C 0.0988024 0.489443 -1.33842e-10 0.729367 -1.33842e-10 1.00768C -1.33842e-10 1.28599 0.0898204 1.51631 0.278443 1.71785C 0.458084 1.90979 0.682635 2.01535 0.943114 2.01535C 1.20359 2.01535 1.41916 1.91939 1.60778 1.71785C 1.78743 1.52591 1.88623 1.28599 1.88623 1.00768Z" />
    <path id="path2_fill" d="M 0.467066 0.998081C 0.592815 0.998081 0.709581 0.950096 0.799401 0.854127C 0.889222 0.758157 0.934132 0.642994 0.934132 0.49904C 0.934132 0.364683 0.889222 0.239923 0.799401 0.143954C 0.709581 0.0479846 0.601797 -7.32188e-08 0.467066 -7.32188e-08C 0.341318 -7.32188e-08 0.224551 0.0479846 0.13473 0.143954C 0.04491 0.239923 -1.37055e-07 0.355086 -1.37055e-07 0.49904C -1.37055e-07 0.633397 0.04491 0.758157 0.13473 0.854127C 0.233533 0.950096 0.341318 0.998081 0.467066 0.998081Z" />
    <path id="path3_fill" d="M 1.03293 3.66094e-08C 0.745509 3.66094e-08 0.502994 0.105566 0.305389 0.326296C 0.107784 0.537428 -3.42637e-08 0.796545 -3.42637e-08 1.10365C -3.42637e-08 1.41075 0.0988024 1.66987 0.305389 1.881C 0.502994 2.09213 0.745509 2.20729 1.03293 2.20729C 1.32036 2.20729 1.56287 2.10173 1.76048 1.881C 1.95808 1.66987 2.06587 1.41075 2.06587 1.10365C 2.06587 0.796545 1.96707 0.537428 1.76048 0.326296C 1.56287 0.105566 1.32036 3.66094e-08 1.03293 3.66094e-08Z" />
    <path id="path4_fill" d="M 0.952096 0.172745C 0.844312 0.0575815 0.709581 0 0.556886 0C 0.404192 0 0.269461 0.0575815 0.161677 0.172745C 0.0538922 0.287908 -2.7411e-07 0.431862 -2.7411e-07 0.59501C -2.7411e-07 0.758157 0.0538922 0.902111 0.161677 1.01727C 0.269461 1.13244 0.404192 1.19002 0.556886 1.19002C 0.709581 1.19002 0.844312 1.13244 0.952096 1.01727C 1.05988 0.902111 1.11377 0.758157 1.11377 0.59501C 1.11377 0.431862 1.05988 0.287908 0.952096 0.172745Z" />
    <path id="path5_fill" d="M 0.655689 -1.46438e-07C 0.476048 -1.46438e-07 0.323353 0.0671782 0.188623 0.201535C 0.0628741 0.335892 0 0.508637 0 0.700576C 0 0.892515 0.0628741 1.05566 0.188623 1.19002C 0.314371 1.32438 0.476048 1.40115 0.655689 1.40115C 0.83533 1.40115 0.988024 1.33397 1.11377 1.19002C 1.23952 1.05566 1.31138 0.892515 1.31138 0.700576C 1.31138 0.508637 1.2485 0.345489 1.11377 0.201535C 0.997006 0.0671782 0.83533 -1.46438e-07 0.655689 -1.46438e-07Z" />
    <path id="path6_fill" d="M 0.745509 -1.46438e-07C 0.538922 -1.46438e-07 0.359282 0.0767754 0.215569 0.230326C 0.0718564 0.383877 -6.85275e-08 0.575816 -6.85275e-08 0.796545C -6.85275e-08 1.01727 0.0718564 1.20921 0.215569 1.36276C 0.359282 1.51632 0.538922 1.59309 0.745509 1.59309C 0.952096 1.59309 1.13174 1.51632 1.27545 1.36276C 1.41916 1.20921 1.49102 1.01727 1.49102 0.796545C 1.49102 0.575816 1.41916 0.383877 1.27545 0.230326C 1.13174 0.0767754 0.952096 -1.46438e-07 0.745509 -1.46438e-07Z" />
    <path id="path7_fill" d="M 1.12275 0C 0.808383 0 0.547904 0.115163 0.323353 0.345489C 0.107785 0.575816 -1.37055e-07 0.863724 -1.37055e-07 1.19962C -1.37055e-07 1.53551 0.107785 1.81382 0.323353 2.05374C 0.538922 2.28407 0.808383 2.39923 1.12275 2.39923C 1.43713 2.39923 1.6976 2.28407 1.92216 2.05374C 2.13772 1.82342 2.24551 1.53551 2.24551 1.19962C 2.24551 0.863724 2.13772 0.585413 1.92216 0.345489C 1.70659 0.115163 1.43713 0 1.12275 0Z" />
  </defs>
</svg>
