<svg width="12" height="17" viewBox="0 0 12 17" version="1.1" xmlns="http://www.w3.org/2000/svg" xmlns:xlink="http://www.w3.org/1999/xlink">
  <g id="Canvas" transform="translate(11363 -27)">
    <g id="Vector">
      <use xlink:href="#path0_fill" transform="translate(-11358.7 36.2057)" fill="#FFFFFF" />
    </g>
    <g id="Vector">
      <use xlink:href="#path1_fill" transform="translate(-11363 27)" fill="#FFFFFF" />
    </g>
  </g>
  <defs>
    <path id="path0_fill" d="M 1.68 -4.71959e-07C 0.72 -4.71959e-07 -4.57764e-07 0.742326 -4.57764e-07 1.7321C -4.57764e-07 2.22698 0.24 2.59814 0.48 2.96931L 0.48 4.45396C 0.48 5.07257 0.96 5.56745 1.56 5.56745C 2.16 5.56745 2.64 5.07257 2.64 4.45396L 2.64 2.96931C 3 2.59814 3.12 2.22698 3.12 1.7321C 3.36 0.742326 2.64 -4.71959e-07 1.68 -4.71959e-07ZM 2.28 2.3507C 2.16 2.47442 2.04 2.72187 2.04 2.96931L 2.04 4.45396C 2.04 4.70141 1.92 4.82513 1.68 4.82513C 1.44 4.82513 1.32 4.70141 1.32 4.45396L 1.32 2.96931C 1.32 2.72187 1.2 2.59814 1.08 2.3507C 0.96 2.22698 0.840001 1.97954 0.840001 1.7321C 0.840001 1.23721 1.2 0.866049 1.68 0.866049C 2.16 0.866049 2.52 1.23721 2.52 1.7321C 2.52 1.97954 2.52 2.10326 2.28 2.3507Z" />
    <path id="path1_fill" d="M 12 6.97858L 3.24 6.97858L 3.24 3.88555C 3.24 2.4009 4.32 0.916244 5.76 0.792523C 7.44 0.668802 8.88 2.02973 8.88 3.63811L 8.88 5.12277C 8.88 5.37021 9 5.49393 9.24 5.49393C 9.48 5.49393 9.6 5.37021 9.6 5.12277L 9.6 3.88555C 9.6 2.02973 8.4 0.297638 6.6 0.0501953C 4.32 -0.320968 2.4 1.41113 2.4 3.76183L 2.4 6.97858L 2.28882e-07 6.97858L 2.28882e-07 17L 12 17L 12 6.97858ZM 11.28 15.7628C 11.28 16.0102 11.16 16.134 10.92 16.134L 0.96 16.134L 0.96 7.72091L 11.28 7.72091L 11.28 15.7628Z" />
  </defs>
</svg>
