<svg width="13" height="13" viewBox="0 0 13 13" version="1.1" xmlns="http://www.w3.org/2000/svg" xmlns:xlink="http://www.w3.org/1999/xlink">
  <g id="Canvas" transform="translate(3137 -758)">
    <g id="Vector">
      <use xlink:href="#path0_fill" transform="translate(-3137 758)" fill="#707D87" />
    </g>
  </g>
  <defs>
    <path id="path0_fill" d="M 12.6 11.903L 9.5 8.90302C 10.3 7.90302 10.8 6.70302 10.8 5.40302C 10.8 2.40302 8.4 0.00301538 5.4 0.00301538C 2.4 -0.0969846 0 2.30302 0 5.30302C 0 8.30302 2.4 10.703 5.4 10.703C 6.8 10.703 8 10.203 8.9 9.40302L 12 12.503C 12.1 12.603 12.2 12.603 12.3 12.603C 12.4 12.603 12.5 12.603 12.6 12.503C 12.7 12.303 12.7 12.103 12.6 11.903ZM 0.8 5.30302C 0.8 2.70302 2.9 0.703015 5.4 0.703015C 8 0.703015 10 2.80302 10 5.30302C 10 7.80302 8 10.003 5.4 10.003C 2.8 10.003 0.8 7.90302 0.8 5.30302Z" />
  </defs>
</svg>
