<svg width="14" height="13" viewBox="0 0 14 13" version="1.1" xmlns="http://www.w3.org/2000/svg" xmlns:xlink="http://www.w3.org/1999/xlink">
  <g id="Canvas" transform="translate(11321 32)">
    <g id="Vector">
      <use xlink:href="#path0_stroke" transform="translate(-11320 -31)" fill="#F8BD1B" />
    </g>
  </g>
  <defs>
    <path id="path0_stroke" d="M 11.9324 4.2175L 11.4324 4.2175L 11.4324 4.4246L 11.5789 4.57105L 11.9324 4.2175ZM 11.6238 4.01177L 11.5551 4.50701L 11.5893 4.51177L 11.6238 4.51177L 11.6238 4.01177ZM 7.92067 3.49744L 7.47345 3.72104L 7.59117 3.95647L 7.85188 3.99268L 7.92067 3.49744ZM 6.27482 0.205732L 6.72203 -0.0178751L 6.68574 -0.0904479L 6.62837 -0.147822L 6.27482 0.205732ZM 5.65762 0.205732L 5.30406 -0.147822L 5.24669 -0.0904479L 5.2104 -0.0178751L 5.65762 0.205732ZM 4.01176 3.49744L 4.08055 3.99268L 4.34126 3.95647L 4.45898 3.72104L 4.01176 3.49744ZM 0.308597 4.01177L 0.308597 4.51177L 0.343154 4.51177L 0.377382 4.50701L 0.308597 4.01177ZM 7.84804e-07 4.2175L -0.353553 3.86394L -0.499999 4.01039L -0.499999 4.2175L 7.84804e-07 4.2175ZM 0.102865 4.52609L -0.250756 4.87972L -0.243689 4.88651L 0.102865 4.52609ZM 2.77738 7.09774L 3.27432 7.15296L 3.30153 6.90809L 3.12393 6.73732L 2.77738 7.09774ZM 2.36591 10.8009L 1.86897 10.7457L 1.86591 10.7732L 1.86591 10.8009L 2.36591 10.8009ZM 2.46878 11.1095L 2.11522 11.4631L 2.26167 11.6095L 2.46878 11.6095L 2.46878 11.1095ZM 2.77738 11.2124L 2.77738 11.7124L 2.90195 11.7124L 3.01196 11.6539L 2.77738 11.2124ZM 6.06908 9.46365L 6.30366 9.02209L 6.06908 8.89748L 5.8345 9.02209L 6.06908 9.46365ZM 9.36079 11.2124L 9.12621 11.6539L 9.23622 11.7124L 9.36079 11.7124L 9.36079 11.2124ZM 9.77225 10.8009L 10.2722 10.8009L 10.2722 10.7584L 10.2651 10.7164L 9.77225 10.8009ZM 9.15505 7.20061L 8.8085 6.84019L 8.61746 7.02388L 8.66224 7.28509L 9.15505 7.20061ZM 11.8296 4.62896L 11.606 4.18175L 11.5379 4.21579L 11.483 4.26854L 11.8296 4.62896ZM 12.4324 4.2175C 12.4324 3.71463 11.9629 3.51177 11.6238 3.51177L 11.6238 4.51177C 11.6467 4.51177 11.6105 4.51748 11.5553 4.47606C 11.4969 4.43228 11.4324 4.34254 11.4324 4.2175L 12.4324 4.2175ZM 11.6926 3.51652L 7.98945 3.00219L 7.85188 3.99268L 11.5551 4.50701L 11.6926 3.51652ZM 8.36788 3.27383L 6.72203 -0.0178751L 5.8276 0.429338L 7.47345 3.72104L 8.36788 3.27383ZM 6.62837 -0.147822C 6.57694 -0.199256 6.49955 -0.274864 6.42051 -0.335711C 6.34036 -0.395828 6.1808 -0.5 5.96622 -0.5L 5.96622 0.5C 5.90754 0.5 5.86459 0.485225 5.84296 0.47576C 5.82246 0.46679 5.81441 0.45971 5.82052 0.464293C 5.82608 0.468462 5.83708 0.477505 5.8557 0.49496C 5.87451 0.512593 5.89446 0.532486 5.92126 0.559285L 6.62837 -0.147822ZM 5.96622 -0.5C 5.75164 -0.5 5.59208 -0.395828 5.51192 -0.335711C 5.43288 -0.274864 5.3555 -0.199256 5.30406 -0.147822L 6.01117 0.559285C 6.03797 0.532486 6.05793 0.512593 6.07673 0.49496C 6.09535 0.477505 6.10635 0.468462 6.11191 0.464293C 6.11802 0.45971 6.10998 0.46679 6.08947 0.47576C 6.06784 0.485225 6.02489 0.5 5.96622 0.5L 5.96622 -0.5ZM 5.2104 -0.0178751L 3.56455 3.27383L 4.45898 3.72104L 6.10483 0.429338L 5.2104 -0.0178751ZM 3.94298 3.00219L 0.239813 3.51652L 0.377382 4.50701L 4.08055 3.99268L 3.94298 3.00219ZM 0.308597 3.51177C 0.0940151 3.51177 -0.0655443 3.61594 -0.145701 3.67606C -0.224735 3.73691 -0.30212 3.81251 -0.353553 3.86394L 0.353554 4.57105C 0.380355 4.54425 0.400312 4.52436 0.419121 4.50672C 0.43774 4.48927 0.448742 4.48023 0.4543 4.47606C 0.460411 4.47147 0.452361 4.47855 0.431858 4.48752C 0.410221 4.49699 0.367276 4.51177 0.308597 4.51177L 0.308597 3.51177ZM -0.499999 4.2175C -0.499999 4.32778 -0.509009 4.62133 -0.250688 4.87965L 0.456418 4.17254C 0.460735 4.17686 0.469837 4.1872 0.479185 4.20382C 0.488627 4.2206 0.494583 4.23714 0.49793 4.25053C 0.500984 4.26275 0.500971 4.26885 0.500634 4.26346C 0.500163 4.25591 0.500001 4.2458 0.500001 4.2175L -0.499999 4.2175ZM -0.243689 4.88651L 2.43082 7.45816L 3.12393 6.73732L 0.449419 4.16568L -0.243689 4.88651ZM 2.28044 7.04252L 1.86897 10.7457L 2.86285 10.8561L 3.27432 7.15296L 2.28044 7.04252ZM 1.86591 10.8009C 1.86591 10.9112 1.8569 11.2047 2.11522 11.4631L 2.82233 10.756C 2.82665 10.7603 2.83575 10.7706 2.8451 10.7872C 2.85454 10.804 2.8605 10.8206 2.86384 10.8339C 2.8669 10.8462 2.86688 10.8523 2.86655 10.8469C 2.86608 10.8393 2.86591 10.8292 2.86591 10.8009L 1.86591 10.8009ZM 2.46878 11.6095C 2.40195 11.6095 2.33257 11.5903 2.27261 11.5543C 2.22749 11.5273 2.19867 11.4951 2.21809 11.5145C 2.22439 11.5208 2.27892 11.5787 2.35619 11.625C 2.4483 11.6803 2.55625 11.7124 2.67451 11.7124L 2.67451 10.7124C 2.74134 10.7124 2.81071 10.7316 2.87068 10.7676C 2.9158 10.7946 2.94462 10.8268 2.92519 10.8074C 2.9189 10.8011 2.86437 10.7432 2.7871 10.6968C 2.69499 10.6416 2.58704 10.6095 2.46878 10.6095L 2.46878 11.6095ZM 2.67451 11.7124C 2.72594 11.7124 2.75166 11.7124 2.76452 11.7124C 2.77095 11.7124 2.77416 11.7124 2.77577 11.7124C 2.77657 11.7124 2.77698 11.7124 2.77718 11.7124C 2.77728 11.7124 2.77733 11.7124 2.77735 11.7124C 2.77737 11.7124 2.77737 11.7124 2.77737 11.7124C 2.77738 11.7124 2.77738 11.7124 2.77738 11.7124L 2.77738 11.7124C 2.77738 11.7124 2.77738 11.7124 2.77738 11.2124C 2.77738 10.7124 2.77738 10.7124 2.77738 10.7124L 2.77738 10.7124C 2.77738 10.7124 2.77738 10.7124 2.77737 10.7124C 2.77737 10.7124 2.77737 10.7124 2.77735 10.7124C 2.77733 10.7124 2.77728 10.7124 2.77718 10.7124C 2.77698 10.7124 2.77657 10.7124 2.77577 10.7124C 2.77416 10.7124 2.77095 10.7124 2.76452 10.7124C 2.75166 10.7124 2.72594 10.7124 2.67451 10.7124L 2.67451 11.7124ZM 3.01196 11.6539L 6.30366 9.90521L 5.8345 9.02209L 2.5428 10.7708L 3.01196 11.6539ZM 5.8345 9.90521L 9.12621 11.6539L 9.59537 10.7708L 6.30366 9.02209L 5.8345 9.90521ZM 9.36079 11.7124L 9.46365 11.7124L 9.46365 10.7124L 9.36079 10.7124L 9.36079 11.7124ZM 9.46365 11.7124C 9.64359 11.7124 9.87038 11.667 10.0487 11.4888C 10.2269 11.3105 10.2722 11.0837 10.2722 10.9038L 9.27225 10.9038C 9.27225 10.9296 9.26614 10.8571 9.34154 10.7817C 9.41695 10.7063 9.48945 10.7124 9.46365 10.7124L 9.46365 11.7124ZM 9.77225 10.9038C 10.2722 10.9038 10.2722 10.9038 10.2722 10.9038C 10.2722 10.9038 10.2722 10.9038 10.2722 10.9038C 10.2722 10.9038 10.2722 10.9038 10.2722 10.9037C 10.2722 10.9037 10.2722 10.9037 10.2722 10.9036C 10.2722 10.9034 10.2722 10.903 10.2722 10.9022C 10.2722 10.9006 10.2722 10.8973 10.2722 10.8909C 10.2722 10.8781 10.2722 10.8523 10.2722 10.8009L 9.27225 10.8009C 9.27225 10.8523 9.27225 10.8781 9.27225 10.8909C 9.27225 10.8973 9.27225 10.9006 9.27225 10.9022C 9.27225 10.903 9.27225 10.9034 9.27225 10.9036C 9.27225 10.9037 9.27225 10.9037 9.27225 10.9037C 9.27225 10.9038 9.27225 10.9038 9.27225 10.9038C 9.27225 10.9038 9.27225 10.9038 9.27225 10.9038C 9.27225 10.9038 9.27225 10.9038 9.77225 10.9038ZM 10.2651 10.7164L 9.64787 7.11612L 8.66224 7.28509L 9.27944 10.8854L 10.2651 10.7164ZM 9.50161 7.56102L 12.1761 4.98938L 11.483 4.26854L 8.8085 6.84019L 9.50161 7.56102ZM 12.0532 5.07617C 12.2843 4.96063 12.4481 4.75607 12.4899 4.50544C 12.5291 4.27055 12.4527 4.03066 12.286 3.86394L 11.5789 4.57105C 11.515 4.5072 11.4901 4.42161 11.5035 4.34102C 11.5196 4.24468 11.5806 4.19442 11.606 4.18175L 12.0532 5.07617Z" />
  </defs>
</svg>
