<svg width="12" height="12" viewBox="0 0 12 12" version="1.1" xmlns="http://www.w3.org/2000/svg" xmlns:xlink="http://www.w3.org/1999/xlink">
  <g id="Canvas" transform="translate(11336 31)">
    <g id="Vector">
      <use xlink:href="#path0_fill" transform="translate(-11336 -31)" fill="#F8BD1B" />
    </g>
  </g>
  <defs>
    <path id="path0_fill" d="M 12 4.31579C 12 4.21053 11.8947 4.10526 11.6842 4.10526L 7.89474 3.57895L 6.21053 0.210526C 6.10526 0.105263 6 7.59626e-16 5.89474 7.59626e-16C 5.78947 7.59626e-16 5.68421 0.105263 5.57895 0.210526L 3.89474 3.57895L 0.315789 4.10526C 0.210526 4.10526 0.105264 4.21053 8.03094e-07 4.31579C 8.03094e-07 4.42105 -8.078e-07 4.52632 0.105262 4.63158L 2.84211 7.26316L 2.21053 11.0526C 2.21053 11.1579 2.21053 11.2632 2.31579 11.3684C 2.42105 11.3684 2.42105 11.4737 2.52631 11.4737C 2.63158 11.4737 2.63158 11.4737 2.63158 11.4737L 6 9.68421L 9.36842 11.4737L 9.47369 11.4737C 9.68421 11.4737 9.78947 11.3684 9.78947 11.1579C 9.78947 11.1579 9.78947 11.1579 9.78947 11.0526L 9.1579 7.36842L 11.8947 4.63158C 12 4.63158 12 4.42105 12 4.31579Z" />
  </defs>
</svg>
