<?xml version="1.0" encoding="UTF-8"?>
<svg width="48px" height="48px" viewBox="0 0 48 48" version="1.1" xmlns="http://www.w3.org/2000/svg" xmlns:xlink="http://www.w3.org/1999/xlink">
    <!-- Generator: Sketch 49.1 (51147) - http://www.bohemiancoding.com/sketch -->
    <title>avatar-alt</title>
    <desc>Created with Sketch.</desc>
    <defs>
        <path d="M9.86280952,38.1397143 C9.91395238,38.1908095 9.96504762,38.2078571 9.99914286,38.2589524 C10.8683333,39.1107143 11.8057143,39.894381 12.8112381,40.5758095 C12.9305714,40.661 13.0498571,40.7120952 13.1691429,40.7972857 C14.140619,41.427619 15.1461429,41.9727619 16.2198571,42.4327143 C16.3391429,42.4838095 16.4755238,42.5179048 16.6118571,42.569 C17.702619,42.9949048 18.8274286,43.352619 20.0034286,43.5911429 C20.0715714,43.6081905 20.1568095,43.6081905 20.2249524,43.6252381 C21.4520476,43.8637143 22.6961905,44 23.9914762,44 C25.2867619,44 26.5479524,43.8637143 27.758,43.6252381 C27.8261429,43.6081905 27.911381,43.6081905 27.9795714,43.5911429 C29.1555238,43.352619 30.280381,42.9949048 31.3710952,42.569 C31.4904286,42.5179048 31.6267619,42.4838095 31.7460476,42.4327143 C32.8197619,41.9727619 33.8423333,41.4105714 34.8138095,40.7972857 C34.9160476,40.7291429 35.035381,40.661 35.1546667,40.5928571 C36.176437,39.8950373 37.1345728,39.1083295 38.0179048,38.2419048 C38.052,38.2078571 38.0860476,38.1908095 38.1201429,38.1567143 C38.1201429,38.1567143 38.1201429,38.1397143 38.1371905,38.1397143 C41.7503333,34.5110476 44,29.5195714 44,24.0170476 C44,12.9608095 35.0183333,4 23.9914762,4 C12.964619,4 4,12.9608095 4,23.9829524 C4,29.4855238 6.23261905,34.477 9.8457619,38.105619 C9.86280952,38.105619 9.86280952,38.1226667 9.86280952,38.1397143 Z M33.8252857,36.9812857 C33.450381,37.2708571 33.058381,37.5604762 32.666381,37.799 C32.3425714,38.0034286 31.9846667,38.1737619 31.6438095,38.3441429 C26.9228571,40.7631905 21.0771429,40.7631905 16.3561905,38.3441429 C16.0153333,38.1567143 15.6574286,38.0034286 15.333619,37.799 C14.9245714,37.5434286 14.549619,37.2538571 14.1747143,36.9812857 C13.8849524,36.7598095 13.6122857,36.5383333 13.3395714,36.2998095 C15.2654286,32.1601429 19.3898571,29.4514286 23.9914762,29.4514286 C28.5930952,29.4514286 32.7175238,32.1601429 34.643381,36.2998095 C34.3877143,36.5383333 34.1150476,36.7598095 33.8252857,36.9812857 Z M18.5377143,20.3543333 C18.5377143,17.3560476 20.9919048,14.9029048 23.9914762,14.9029048 C26.9910476,14.9029048 29.4452381,17.3560476 29.4452381,20.3543333 C29.4452381,23.352619 26.9910476,25.8058095 23.9914762,25.8058095 C20.9919048,25.8058095 18.5377143,23.352619 18.5377143,20.3543333 Z M23.9914762,7.62861905 C33.0072381,7.62861905 40.3528095,14.9710476 40.3528095,23.9829524 C40.3528095,27.5264286 39.1938571,30.7972857 37.2509524,33.4889048 C35.5637143,30.6269048 33.0242857,28.3952381 30.0247143,27.1005238 C31.882381,25.431 33.0754286,23.046 33.0754286,20.3543333 C33.0754286,15.3458095 29.0021429,11.2742857 23.9914762,11.2742857 C18.9808095,11.2742857 14.9075238,15.3458095 14.9075238,20.3543333 C14.9075238,23.046 16.1005714,25.431 17.9582381,27.1005238 C14.9586667,28.3952381 12.4192381,30.6269048 10.732,33.4889048 C8.80614286,30.7972857 7.63019048,27.5434286 7.63019048,23.9829524 C7.63019048,14.9710476 14.9757143,7.62861905 23.9914762,7.62861905 Z" id="path-1"></path>
    </defs>
    <g id="avatar-alt" stroke="none" stroke-width="1" fill="none" fill-rule="evenodd">
        <mask id="mask-2" fill="white">
            <use xlink:href="#path-1"></use>
        </mask>
        <use fill="#707D87" fill-rule="nonzero" xlink:href="#path-1"></use>
    </g>
</svg>