<?xml version="1.0" encoding="UTF-8"?>
<svg width="48px" height="48px" viewBox="0 0 48 48" version="1.1" xmlns="http://www.w3.org/2000/svg" xmlns:xlink="http://www.w3.org/1999/xlink">
    <!-- Generator: Sketch 49.1 (51147) - http://www.bohemiancoding.com/sketch -->
    <title>avatar</title>
    <desc>Created with Sketch.</desc>
    <defs>
        <path d="M23.981619,24.1394762 C27.2518571,24.1394762 29.8680476,21.4888571 29.8680476,18.2530476 C29.8680476,15.0172857 27.2518571,12.3666667 23.981619,12.3666667 C20.7114286,12.3666667 18.0952381,15.0172857 18.0952381,18.2530476 C18.0952381,21.4888571 20.7114286,24.1394762 23.981619,24.1394762 Z M23.981619,13.9157143 C26.3568571,13.9157143 28.319,15.8778571 28.319,18.2530476 C28.319,20.6282857 26.3568571,22.5904286 23.981619,22.5904286 C21.606381,22.5904286 19.6442857,20.6282857 19.6442857,18.2530476 C19.6442857,15.8778571 21.6064286,13.9157143 23.981619,13.9157143 Z M13.7573333,33.3641905 L34.2392381,33.3641905 C34.6867619,33.3641905 35.031,33.0199524 35.031,32.5724762 C35.031,28.5105238 31.7263333,25.1714286 27.6299524,25.1714286 L20.4010476,25.1714286 C16.3390952,25.1714286 13,28.4760952 13,32.5724762 C13,33.0199524 13.3442381,33.3641905 13.7573333,33.3641905 Z M20.4010476,26.7549048 L27.6299524,26.7549048 C30.590381,26.7549048 33.0344286,28.958 33.4130952,31.8151429 L14.6178571,31.8151429 C14.9965714,28.958 17.440619,26.7549048 20.4010476,26.7549048 Z M24,44 C35.0499048,44 44,35.0154762 44,24 C44,12.9845238 35.0499048,4 24,4 C12.9500952,4 4,12.9500952 4,24 C4,35.0499048 12.9500952,44 24,44 Z M24,5.48019048 C34.1893333,5.48019048 42.5198095,13.7762381 42.5198095,24 C42.5198095,34.2237619 34.2237619,42.5198095 24,42.5198095 C13.7762381,42.5198095 5.48019048,34.2237619 5.48019048,24 C5.48019048,13.7762381 13.8106667,5.48019048 24,5.48019048 Z" id="path-1"></path>
    </defs>
    <g id="avatar" stroke="none" stroke-width="1" fill="none" fill-rule="evenodd">
        <mask id="mask-2" fill="white">
            <use xlink:href="#path-1"></use>
        </mask>
        <use fill="#707D87" fill-rule="nonzero" xlink:href="#path-1"></use>
    </g>
</svg>