<?xml version="1.0" encoding="UTF-8"?>
<svg width="48px" height="48px" viewBox="0 0 48 48" version="1.1" xmlns="http://www.w3.org/2000/svg" xmlns:xlink="http://www.w3.org/1999/xlink">
    <!-- Generator: Sketch 49.1 (51147) - http://www.bohemiancoding.com/sketch -->
    <title>calendar-full</title>
    <desc>Created with Sketch.</desc>
    <defs>
        <path d="M39.0743077,9.43092308 L34.0909231,9.43092308 L34.0909231,7.18938462 C34.0909231,6.44230769 33.5924615,5.94415385 32.8453846,5.94415385 C32.3469231,5.94415385 31.5992308,6.44230769 31.5992308,7.18938462 L31.5992308,9.43092308 L25.1213846,9.43092308 L25.1213846,7.18938462 C25.1210769,6.44230769 24.6229231,5.94415385 23.8755385,5.94415385 C23.3770769,5.94415385 22.8786154,6.44230769 22.8786154,7.18938462 L22.8786154,9.43092308 L16.1515385,9.43092308 L16.1515385,7.18938462 C16.1512308,6.44230769 15.6527692,5.94415385 14.9050769,5.94415385 C14.4069231,5.94415385 13.9087692,6.44230769 13.9087692,7.18938462 L13.9087692,9.43092308 L8.92569231,9.43092308 C7.182,9.43092308 5.93584615,10.6761538 5.93584615,12.4192308 L5.93584615,39.0672308 C5.93584615,40.8106154 7.18169231,42.0558462 8.92569231,42.0558462 L39.0743077,42.0558462 C40.8183077,42.0558462 42.0641538,40.8106154 42.0641538,39.0672308 L42.0641538,12.4192308 C42.0641538,10.6761538 40.5690769,9.43092308 39.0743077,9.43092308 Z M39.8216923,39.0672308 C39.8216923,39.5653846 39.5724615,39.8143077 39.0743077,39.8143077 L8.92569231,39.8143077 C8.42723077,39.8143077 8.178,39.5653846 8.178,39.0672308 L8.178,12.4192308 C8.178,11.9210769 8.42723077,11.6721538 8.92569231,11.6721538 L13.9090769,11.6721538 L13.9090769,13.9136923 C13.9090769,14.4115385 14.4075385,15.1589231 15.1549231,15.1589231 C15.9023077,15.1589231 16.4007692,14.6604615 16.4007692,13.9136923 L16.4007692,11.6721538 L23.1278462,11.6721538 L23.1278462,13.9136923 C23.1278462,14.4115385 23.6263077,15.1589231 24.374,15.1589231 C24.8721538,15.1589231 25.6195385,14.6604615 25.6195385,13.9136923 L25.6195385,11.6721538 L32.3469231,11.6721538 L32.3469231,13.9136923 C32.3469231,14.4115385 32.8453846,15.1589231 33.5927692,15.1589231 C34.3404615,15.1589231 34.8386154,14.6604615 34.8386154,13.9136923 L34.8386154,11.6721538 L39.8216923,11.6721538 C40.3201538,11.6721538 40.5690769,11.9213846 40.5690769,12.4192308 L40.5690769,39.0672308 L39.8216923,39.0672308 Z M18.39,19.3903077 L13.9050769,19.3903077 L13.9050769,22.8770769 L18.39,22.8770769 L18.39,19.3903077 Z M18.39,25.1133846 L13.9050769,25.1133846 L13.9050769,28.6001538 L18.39,28.6001538 L18.39,25.1133846 Z M18.39,30.8364615 L13.9050769,30.8364615 L13.9050769,34.3232308 L18.39,34.3232308 L18.39,30.8364615 Z M26.1130769,30.8364615 L21.6281538,30.8364615 L21.6281538,34.3232308 L26.1130769,34.3232308 L26.1130769,30.8364615 Z M26.1130769,25.1133846 L21.6281538,25.1133846 L21.6281538,28.6001538 L26.1130769,28.6001538 L26.1130769,25.1133846 Z M26.1130769,19.3903077 L21.6281538,19.3903077 L21.6281538,22.8770769 L26.1130769,22.8770769 L26.1130769,19.3903077 Z M34.0823077,30.8364615 L29.5973846,30.8364615 L29.5973846,34.3232308 L34.0823077,34.3232308 L34.0823077,30.8364615 Z M34.0823077,25.1133846 L29.5973846,25.1133846 L29.5973846,28.6001538 L34.0823077,28.6001538 L34.0823077,25.1133846 Z M34.0823077,19.3903077 L29.5973846,19.3903077 L29.5973846,22.8770769 L34.0823077,22.8770769 L34.0823077,19.3903077 Z" id="path-1"></path>
    </defs>
    <g id="calendar-full" stroke="none" stroke-width="1" fill="none" fill-rule="evenodd">
        <mask id="mask-2" fill="white">
            <use xlink:href="#path-1"></use>
        </mask>
        <use fill="#707D87" fill-rule="nonzero" xlink:href="#path-1"></use>
    </g>
</svg>