<?xml version="1.0" encoding="UTF-8"?>
<svg width="48px" height="48px" viewBox="0 0 48 48" version="1.1" xmlns="http://www.w3.org/2000/svg" xmlns:xlink="http://www.w3.org/1999/xlink">
    <!-- Generator: Sketch 49.1 (51147) - http://www.bohemiancoding.com/sketch -->
    <title>calendar</title>
    <desc>Created with Sketch.</desc>
    <defs>
        <path d="M5.4208,43 L42.5792,43 C43.3541333,43 44,42.3800571 44,41.5383571 L44,9.16317143 C44,8.36598571 43.3970667,7.70152857 42.5792,7.70152857 L35.604,7.70152857 L35.604,6.46164286 C35.604,5.66445714 35.0010667,5 34.1829333,5 C33.408,5 32.7621333,5.61994286 32.7621333,6.46164286 L32.7621333,7.70152857 L15.4530667,7.70152857 L15.4530667,6.46164286 C15.4533333,5.66445714 14.8506667,5 14.0322667,5 C13.2573333,5 12.6114667,5.61994286 12.6114667,6.46164286 L12.6114667,7.70152857 L5.4208,7.70152857 C4.60266667,7.70152857 4,8.32174286 4,9.16317143 L4,41.6271143 C4,42.3800571 4.64586667,43 5.4208,43 Z M6.8416,10.5805714 L12.6544,10.5805714 L12.6544,11.3774857 C12.6544,12.1749429 13.2570667,12.8391286 14.0754667,12.8391286 C14.8504,12.8391286 15.4962667,12.2191857 15.4962667,11.3774857 L15.4962667,10.5805714 L32.8050667,10.5805714 L32.8050667,11.3780286 C32.8050667,12.1752143 33.408,12.8394 34.2261333,12.8394 C35.0010667,12.8394 35.6469333,12.2194571 35.6469333,11.3777571 L35.6469333,10.5805714 L41.2442667,10.5805714 L41.2442667,14.3452857 L6.8416,14.3452857 L6.8416,10.5805714 Z M6.84186667,17.2680286 L41.2013333,17.2680286 L41.2013333,40.1654714 L6.84186667,40.1654714 L6.84186667,17.2680286 Z" id="path-1"></path>
    </defs>
    <g id="calendar" stroke="none" stroke-width="1" fill="none" fill-rule="evenodd">
        <mask id="mask-2" fill="white">
            <use xlink:href="#path-1"></use>
        </mask>
        <use fill="#707D87" fill-rule="nonzero" xlink:href="#path-1"></use>
    </g>
</svg>