<?xml version="1.0" encoding="UTF-8"?>
<svg width="48px" height="48px" viewBox="0 0 48 48" version="1.1" xmlns="http://www.w3.org/2000/svg" xmlns:xlink="http://www.w3.org/1999/xlink">
    <!-- Generator: Sketch 49.3 (51167) - http://www.bohemiancoding.com/sketch -->
    <title>calendar-full</title>
    <desc>Created with Sketch.</desc>
    <defs>
        <path d="M39.0743077,9.43092308 L34.0909231,9.43092308 L34.0909231,7.18938462 C34.0909231,6.44230769 33.5924615,5.94415385 32.8453846,5.94415385 C32.3469231,5.94415385 31.5992308,6.44230769 31.5992308,7.18938462 L31.5992308,9.43092308 L25.1213846,9.43092308 L25.1213846,7.18938462 C25.1210769,6.44230769 24.6229231,5.94415385 23.8755385,5.94415385 C23.3770769,5.94415385 22.8786154,6.44230769 22.8786154,7.18938462 L22.8786154,9.43092308 L16.1515385,9.43092308 L16.1515385,7.18938462 C16.1512308,6.44230769 15.6527692,5.94415385 14.9050769,5.94415385 C14.4069231,5.94415385 13.9087692,6.44230769 13.9087692,7.18938462 L13.9087692,9.43092308 L8.92569231,9.43092308 C7.182,9.43092308 5.93584615,10.6761538 5.93584615,12.4192308 L5.93584615,39.0672308 C5.93584615,40.8106154 7.18169231,42.0558462 8.92569231,42.0558462 L39.0743077,42.0558462 C40.8183077,42.0558462 42.0641538,40.8106154 42.0641538,39.0672308 L42.0641538,12.4192308 C42.0641538,10.6761538 40.5690769,9.43092308 39.0743077,9.43092308 Z M39.9358462,39.19363 C39.9358462,39.6940823 39.6896245,39.9441538 39.1974852,39.9441538 L8.67451112,39.9441538 C8.18206781,39.9441538 7.93584615,39.6940823 7.93584615,39.19363 L7.93584615,12.4226777 C7.93584615,11.9222254 8.18206781,11.6721538 8.67451112,11.6721538 L13.5977283,11.6721538 L13.5977283,13.9240346 C13.5977283,14.4241778 14.0901717,15.1750108 14.8285326,15.1750108 C15.5668936,15.1750108 16.059337,14.6742494 16.059337,13.9240346 L16.059337,11.6721538 L22.7051938,11.6721538 L22.7051938,13.9240346 C22.7051938,14.4241778 23.1976372,15.1750108 23.9363021,15.1750108 C24.4284415,15.1750108 25.1668024,14.6742494 25.1668024,13.9240346 L25.1668024,11.6721538 L31.8129633,11.6721538 L31.8129633,13.9240346 C31.8129633,14.4241778 32.3054066,15.1750108 33.0437676,15.1750108 C33.7824326,15.1750108 34.2745719,14.6742494 34.2745719,13.9240346 L34.2745719,11.6721538 L39.1974852,11.6721538 C39.6899285,11.6721538 39.9358462,11.9225346 39.9358462,12.4226777 L39.9358462,39.19363 Z M18.39,19.3903077 L13.9050769,19.3903077 L13.9050769,22.8770769 L18.39,22.8770769 L18.39,19.3903077 Z M18.39,25.1133846 L13.9050769,25.1133846 L13.9050769,28.6001538 L18.39,28.6001538 L18.39,25.1133846 Z M18.39,30.8364615 L13.9050769,30.8364615 L13.9050769,34.3232308 L18.39,34.3232308 L18.39,30.8364615 Z M26.1130769,30.8364615 L21.6281538,30.8364615 L21.6281538,34.3232308 L26.1130769,34.3232308 L26.1130769,30.8364615 Z M26.1130769,25.1133846 L21.6281538,25.1133846 L21.6281538,28.6001538 L26.1130769,28.6001538 L26.1130769,25.1133846 Z M26.1130769,19.3903077 L21.6281538,19.3903077 L21.6281538,22.8770769 L26.1130769,22.8770769 L26.1130769,19.3903077 Z M34.0823077,30.8364615 L29.5973846,30.8364615 L29.5973846,34.3232308 L34.0823077,34.3232308 L34.0823077,30.8364615 Z M34.0823077,25.1133846 L29.5973846,25.1133846 L29.5973846,28.6001538 L34.0823077,28.6001538 L34.0823077,25.1133846 Z M34.0823077,19.3903077 L29.5973846,19.3903077 L29.5973846,22.8770769 L34.0823077,22.8770769 L34.0823077,19.3903077 Z" id="path-1"></path>
    </defs>
    <g id="calendar-full" stroke="none" stroke-width="1" fill="none" fill-rule="evenodd">
        <mask id="mask-2" fill="white">
            <use xlink:href="#path-1"></use>
        </mask>
        <use fill="#707D87" fill-rule="nonzero" xlink:href="#path-1"></use>
    </g>
</svg>