<?xml version="1.0" encoding="UTF-8"?>
<svg width="48px" height="48px" viewBox="0 0 48 48" version="1.1" xmlns="http://www.w3.org/2000/svg" xmlns:xlink="http://www.w3.org/1999/xlink">
    <!-- Generator: Sketch 49.1 (51147) - http://www.bohemiancoding.com/sketch -->
    <title>close</title>
    <desc>Created with Sketch.</desc>
    <defs>
        <path d="M28.7604017,24.0089999 L43.013691,9.75577997 C43.6449912,9.12637581 43.9998115,8.27158363 43.9998115,7.38013219 C43.9998115,6.48868076 43.6449912,5.63388858 43.013691,5.00448442 C42.3842971,4.37328951 41.5295723,4.01853584 40.6381983,4.01853584 C39.7468244,4.01853584 38.8920996,4.37328951 38.2627057,5.00448442 L24.0094164,19.2577044 L9.75546043,4.98615124 C9.12600958,4.35493614 8.27122959,4.00017425 7.37980111,4.00017425 C6.48837262,4.00017425 5.63359263,4.35493614 5.00414178,4.98615124 C4.37302582,5.61558567 4.01832712,6.47028999 4.01832712,7.36163234 C4.01832712,8.25297469 4.37302582,9.10767902 5.00414178,9.73711345 L19.2574311,23.9903334 L4.98614183,38.2628866 C4.35494384,38.8922774 4.00018845,39.746998 4.00018845,40.6383677 C4.00018845,41.5297373 4.35494384,42.384458 4.98614183,43.0138488 C5.6155357,43.6450437 6.47026053,43.9997973 7.36163449,43.9997973 C8.25300846,43.9997973 9.10773328,43.6450437 9.73712716,43.0138488 L23.9904165,28.7606288 L38.2440391,43.0138488 C38.8734899,43.6450639 39.7282699,43.9998257 40.6196984,43.9998257 C41.5111269,43.9998257 42.3659069,43.6450639 42.9953577,43.0138488 C43.6265557,42.384458 43.9813111,41.5297373 43.9813111,40.6383677 C43.9813111,39.746998 43.6265557,38.8922774 42.9953577,38.2628866 L28.760735,24.0096666 L28.7604017,24.0089999 Z" id="path-1"></path>
    </defs>
    <g id="close" stroke="none" stroke-width="1" fill="none" fill-rule="evenodd">
        <mask id="mask-2" fill="white">
            <use xlink:href="#path-1"></use>
        </mask>
        <use fill="#707D87" fill-rule="nonzero" xlink:href="#path-1"></use>
    </g>
</svg>