<?xml version="1.0" encoding="UTF-8"?>
<svg width="48px" height="48px" viewBox="0 0 48 48" version="1.1" xmlns="http://www.w3.org/2000/svg" xmlns:xlink="http://www.w3.org/1999/xlink">
    <!-- Generator: Sketch 49.3 (51167) - http://www.bohemiancoding.com/sketch -->
    <title>img-big</title>
    <desc>Created with Sketch.</desc>
    <defs>
        <path d="M43.2964377,8 L4.7034729,8 C4.30146285,8 4,8.3037533 4,8.70881773 L4,39.2911823 C4,39.6962467 4.30146285,40 4.7034729,40 L43.2965271,40 C43.6985371,40 44,39.6962467 44,39.2911823 L44,8.70881773 C44,8.3037533 43.6985371,8 43.2965271,8 L43.2964377,8 Z M42.5928754,38.5822745 L5.40703518,38.5822745 L5.40703518,9.41772551 L42.6934226,9.41772551 L42.6934226,38.5822745 L42.5928754,38.5822745 Z M15.0695764,23.3922683 C17.1801739,23.3922683 18.8886719,21.6706994 18.8886719,19.5441562 C18.8886719,17.4175229 17.1801739,15.6960441 15.0696658,15.6960441 C12.958979,15.6960441 11.1500231,17.4176129 11.1500231,19.5440661 C11.1500231,21.6706994 12.9590684,23.3922683 15.0695764,23.3922683 Z M15.0695764,17.0124585 C16.4766116,17.0124585 17.5821839,18.1264307 17.5821839,19.5441562 C17.5821839,20.9618817 16.4766116,22.0757638 15.0695764,22.0757638 C13.6625413,22.0757638 12.5570583,20.9617916 12.5570583,19.5441562 C12.5570583,18.1264307 13.6626306,17.0124585 15.0695764,17.0124585 Z M8.85432945,35.8479545 C9.05542385,35.8479545 9.15588168,35.7467334 9.3568867,35.6454223 L20.6130787,25.6201226 L27.7487124,32.8099713 C28.0502647,33.1138146 28.4521853,33.1138146 28.7537376,32.8099713 C29.0552004,32.506218 29.0552004,32.1011535 28.7537376,31.7973102 L25.4371993,28.4555737 L31.7688129,21.4682573 L39.5074617,28.6581059 C39.8090139,28.9618592 40.211024,28.8606381 40.5124868,28.6581059 C40.8140391,28.3542625 40.7134919,27.9491981 40.5124868,27.6454448 L32.2713702,19.9492206 C32.1709124,19.8479095 31.9699073,19.7466884 31.7689023,19.7466884 C31.5678973,19.7466884 31.3668923,19.8479095 31.2663451,19.9492206 L24.5327214,27.4429126 L21.115636,24.2023971 C20.8141731,23.8985538 20.4121631,23.8985538 20.2111581,24.2023971 L8.35186158,34.6326712 C8.05030935,34.9365145 8.05030935,35.3415789 8.25131438,35.6453322 C8.45240878,35.7466434 8.65332443,35.8478644 8.85432945,35.8478644 L8.85432945,35.8479545 Z" id="path-1"></path>
    </defs>
    <g id="img-big" stroke="none" stroke-width="1" fill="none" fill-rule="evenodd">
        <mask id="mask-2" fill="white">
            <use xlink:href="#path-1"></use>
        </mask>
        <use fill="#707D87" fill-rule="nonzero" xlink:href="#path-1"></use>
    </g>
</svg>