<?xml version="1.0" encoding="UTF-8"?>
<svg width="48px" height="48px" viewBox="0 0 48 48" version="1.1" xmlns="http://www.w3.org/2000/svg" xmlns:xlink="http://www.w3.org/1999/xlink">
    <!-- Generator: Sketch 49.1 (51147) - http://www.bohemiancoding.com/sketch -->
    <title>img-big</title>
    <desc>Created with Sketch.</desc>
    <defs>
        <path d="M42.7742174,8.20706667 L5.22569565,8.20706667 C4.83456522,8.20706667 4.54126087,8.50688889 4.54126087,8.90671111 L4.54126087,39.0932889 C4.54126087,39.4931111 4.83456522,39.7929333 5.22569565,39.7929333 L42.7743043,39.7929333 C43.1654348,39.7929333 43.4587391,39.4931111 43.4587391,39.0932889 L43.4587391,8.90671111 C43.4587391,8.50688889 43.1654348,8.20706667 42.7743043,8.20706667 L42.7742174,8.20706667 Z M42.0896957,38.3935556 L5.91021739,38.3935556 L5.91021739,9.60644444 L42.1875217,9.60644444 L42.1875217,38.3935556 L42.0896957,38.3935556 Z M15.3112609,23.4001333 C17.3647391,23.4001333 19.027,21.7008444 19.027,19.6018222 C19.027,17.5027111 17.3647391,15.8035111 15.3113478,15.8035111 C13.2577826,15.8035111 11.4977826,17.5028 11.4977826,19.6017333 C11.4977826,21.7008444 13.2578696,23.4001333 15.3112609,23.4001333 Z M15.3112609,17.1028889 C16.6802174,17.1028889 17.7558696,18.2024444 17.7558696,19.6018222 C17.7558696,21.0012 16.6802174,22.1006667 15.3112609,22.1006667 C13.9423043,22.1006667 12.8667391,21.0011111 12.8667391,19.6018222 C12.8667391,18.2024444 13.9423913,17.1028889 15.3112609,17.1028889 Z M9.26421739,35.6946222 C9.45986957,35.6946222 9.5576087,35.5947111 9.75317391,35.4947111 L20.7047391,25.5991556 L27.6472609,32.6959556 C27.9406522,32.9958667 28.3316957,32.9958667 28.625087,32.6959556 C28.9183913,32.3961333 28.9183913,31.9963111 28.625087,31.6964 L25.3983043,28.3979111 L31.5585652,21.5010222 L39.0877826,28.5978222 C39.3811739,28.8976444 39.7723043,28.7977333 40.0656087,28.5978222 C40.359,28.2979111 40.2611739,27.8980889 40.0656087,27.5982667 L32.0475217,20.0016444 C31.9497826,19.9016444 31.7542174,19.8017333 31.5586522,19.8017333 C31.363087,19.8017333 31.1675217,19.9016444 31.0696957,20.0016444 L24.5183043,27.3983556 L21.1936957,24.1997778 C20.9003913,23.8998667 20.5092609,23.8998667 20.3136957,24.1997778 L8.77534783,34.4950667 C8.48195652,34.7949778 8.48195652,35.1948 8.67752174,35.4946222 C8.87317391,35.5946222 9.06865217,35.6945333 9.26421739,35.6945333 L9.26421739,35.6946222 Z" id="path-1"></path>
    </defs>
    <g id="img-big" stroke="none" stroke-width="1" fill="none" fill-rule="evenodd">
        <mask id="mask-2" fill="white">
            <use xlink:href="#path-1"></use>
        </mask>
        <use fill="#707D87" fill-rule="nonzero" xlink:href="#path-1"></use>
    </g>
</svg>