<?xml version="1.0" encoding="UTF-8"?>
<svg width="48px" height="48px" viewBox="0 0 48 48" version="1.1" xmlns="http://www.w3.org/2000/svg" xmlns:xlink="http://www.w3.org/1999/xlink">
    <!-- Generator: Sketch 49.1 (51147) - http://www.bohemiancoding.com/sketch -->
    <title>img</title>
    <desc>Created with Sketch.</desc>
    <defs>
        <path d="M27.9739,18.6428 C29.2297,18.6428 30.2478,17.6248 30.2478,16.3689 C30.2478,15.1131 29.2298,14.095 27.9739,14.095 C26.7181,14.095 25.7,15.113 25.7,16.3689 C25.7,17.6247 26.718,18.6428 27.9739,18.6428 Z M4.0345,42.932 C4.0345,42.932 4.0345,42.9664 4.0345,42.932 C4.0345,42.9664 4.0345,42.9664 4.0345,42.932 C4.1034,43.0353 4.1378,43.1387 4.1723,43.2076 C4.1723,43.242 4.2067,43.242 4.2067,43.2765 C4.2067,43.3109 4.2412,43.3109 4.2412,43.3454 L4.2756,43.3798 C4.3101,43.4488 4.379,43.4832 4.4134,43.5521 L4.4479,43.5866 L4.5168,43.6555 C4.5512,43.6555 4.5512,43.6899 4.5512,43.6899 C4.5857,43.7244 4.6202,43.7244 4.6546,43.7588 L4.6891,43.7933 C4.6891,43.7933 4.7235,43.7933 4.7235,43.8277 C4.758,43.8622 4.8269,43.8622 4.8613,43.8966 C4.8958,43.8966 4.8958,43.8966 4.9303,43.9311 C4.9647,43.9311 4.9991,43.9655 4.9991,43.9655 C5.1025,44 5.206,44 5.3092,44 L42.5874,44 C43.3798,44 44,43.3798 44,42.5874 L44,5.4126 C44,4.6202 43.3798,4 42.5874,4 L5.4126,4 C4.6202,4 4,4.6202 4,5.4126 L4,42.5185 C4,42.6219 4.0345,42.7597 4.0345,42.8631 L4.0345,42.932 Z M41.2782,41.1404 L10.1326,41.1404 L33.1473,26.0844 L41.2782,33.8363 L41.2782,41.1404 Z M6.8252,6.8252 L41.2782,6.8252 L41.2782,29.9432 L34.2842,23.2593 C33.8019,22.8114 33.0784,22.7425 32.5271,23.087 L25.9466,27.4281 L21.3643,22.8114 C20.882,22.329 20.1585,22.2601 19.6072,22.6047 L6.8252,30.6667 L6.8252,6.8252 Z M6.8252,34.0086 L20.1585,25.6021 L23.5349,29.0129 L6.8252,39.9345 L6.8252,34.0086 Z" id="path-1"></path>
    </defs>
    <g id="img" stroke="none" stroke-width="1" fill="none" fill-rule="evenodd">
        <mask id="mask-2" fill="white">
            <use xlink:href="#path-1"></use>
        </mask>
        <use fill="#707D87" fill-rule="nonzero" xlink:href="#path-1"></use>
    </g>
</svg>