<?xml version="1.0" encoding="UTF-8"?>
<svg width="48px" height="48px" viewBox="0 0 48 48" version="1.1" xmlns="http://www.w3.org/2000/svg" xmlns:xlink="http://www.w3.org/1999/xlink">
    <!-- Generator: Sketch 49.1 (51147) - http://www.bohemiancoding.com/sketch -->
    <title>info</title>
    <desc>Created with Sketch.</desc>
    <defs>
        <path d="M24,44 C12.9452308,44 4,35.0545714 4,24 C4,12.9454286 12.9452308,4 24,4 C35.0547692,4 44,12.9454286 44,24 C44,35.0545714 35.0547692,44 24,44 Z M24,7.12485714 C14.672,7.12514286 7.12492308,14.6722857 7.12492308,24 C7.12492308,33.328 14.672,40.8748571 24,40.8748571 C33.328,40.8748571 40.8750769,33.328 40.8750769,24 C40.8750769,14.672 33.328,7.12485714 24,7.12485714 Z M23.9932308,27.2445714 C23.1338462,27.2445714 22.4307692,26.5417143 22.4307692,25.682 L22.4307692,15.62 C22.4307692,14.76 23.1338462,14.0571429 23.9932308,14.0571429 C24.8526154,14.0571429 25.5556923,14.76 25.5556923,15.6197143 L25.5556923,25.682 C25.5556923,26.5414286 24.8526154,27.2448571 23.9932308,27.2448571 L23.9932308,27.2445714 Z M23.9861538,33.3902857 C22.8215385,33.3902857 21.8769231,32.4457143 21.8769231,31.2808571 C21.8769231,30.1157143 22.8215385,29.1714286 23.9861538,29.1714286 C25.1507692,29.1714286 26.0953846,30.1157143 26.0956923,31.2808571 C26.0956923,32.4457143 25.1513846,33.3902857 23.9861538,33.3902857 Z" id="path-1"></path>
    </defs>
    <g id="info" stroke="none" stroke-width="1" fill="none" fill-rule="evenodd">
        <mask id="mask-2" fill="white">
            <use xlink:href="#path-1"></use>
        </mask>
        <use fill="#707D87" fill-rule="nonzero" transform="translate(24.000000, 24.000000) rotate(180.000000) translate(-24.000000, -24.000000) " xlink:href="#path-1"></use>
    </g>
</svg>