<?xml version="1.0" encoding="UTF-8"?>
<svg width="48px" height="48px" viewBox="0 0 48 48" version="1.1" xmlns="http://www.w3.org/2000/svg" xmlns:xlink="http://www.w3.org/1999/xlink">
    <!-- Generator: Sketch 49.1 (51147) - http://www.bohemiancoding.com/sketch -->
    <title>loading</title>
    <desc>Created with Sketch.</desc>
    <defs></defs>
    <g id="loading" stroke="none" stroke-width="1" fill="none" fill-rule="evenodd">
        <path d="M13.9870943,32.3911987 C13.027555,32.3911987 12.2155423,32.7366916 11.5510562,33.4272775 C10.8865701,34.1186632 10.5545325,34.9624017 10.5545325,35.9600924 C10.5545325,36.9577831 10.8865701,37.8023213 11.5510562,38.4929072 C12.2155423,39.183893 13.027555,39.528986 13.9870943,39.528986 C14.9470446,39.528986 15.7590573,39.183893 16.4231325,38.4933071 C17.0876186,37.8023213 17.4566405,36.9577831 17.4566405,35.9600924 C17.4566405,34.9624017 17.1246029,34.1182633 16.4231325,33.4272775 C15.7590573,32.7750797 14.9474555,32.3911987 13.9870943,32.3911987 Z M13.2511051,24.7843568 C13.2511051,23.6715018 12.8820831,22.7501874 12.1070548,21.9444372 C11.368189,21.1766752 10.446045,20.754806 9.37514161,20.754806 C8.30506009,20.754806 7.41948955,21.138687 6.64405029,21.9444372 C5.90600635,22.7121992 5.5,23.6715018 5.5,24.7843568 C5.5,25.8972119 5.86902197,26.8181264 6.64405029,27.6242765 C7.38250516,28.3916386 8.30506009,28.8139077 9.37555254,28.8139077 C10.446045,28.8139077 11.3316155,28.4300267 12.1070548,27.6242765 C12.8450987,26.8565145 13.2511051,25.896812 13.2511051,24.7843568 Z M35.5272107,15.5884076 C36.0457141,15.593262 36.5421094,15.3843591 36.8935783,15.0133859 C37.2621893,14.629105 37.4467003,14.1688477 37.4467003,13.593426 C37.4467003,13.0555928 37.2621893,12.5565475 36.8931673,12.1734662 C36.5241454,11.7895852 36.0811546,11.5976447 35.5276217,11.5976447 C35.0091345,11.5931091 34.5128916,11.8023012 34.1616651,12.1734662 C33.793054,12.5573472 33.6081321,13.0172047 33.6081321,13.5930262 C33.6081321,14.1304596 33.793054,14.6295049 34.1616651,15.012986 C34.5676714,15.396867 35.0106622,15.5888075 35.5276217,15.5888075 L35.5272107,15.5884076 Z M13.9776428,9.2383761 C12.7957862,9.2383761 11.7996735,9.6606452 10.9872498,10.5431716 C10.1756481,11.3873099 9.73265732,12.4233887 9.73265732,13.6518079 C9.73265732,14.8794274 10.1386637,15.9159061 10.9876608,16.7600444 C11.7996735,17.6041827 12.7961972,18.0648399 13.9772318,18.0648399 C15.1586774,18.0648399 16.1552011,17.6425708 16.9672138,16.7600444 C17.7792265,15.9159061 18.2222173,14.8794274 18.2222173,13.6518079 C18.2222173,12.4233887 17.8162109,11.3873099 16.9672138,10.5431716 C16.1552011,9.6606452 15.1586774,9.2383761 13.9772318,9.2383761 L13.9776428,9.2383761 Z M41.8355139,23.1248713 C41.3925232,22.664614 40.8389902,22.4342854 40.2114885,22.4342854 C39.5839868,22.4342854 39.0304538,22.664614 38.5874631,23.1248713 C38.1444723,23.5859284 37.922977,24.1617499 37.922977,24.8135478 C37.922977,25.4661455 38.1444723,26.0415671 38.5874631,26.5022243 C39.0304538,26.9624816 39.5839868,27.1928102 40.2114885,27.1928102 C40.8389902,27.1928102 41.3925232,26.9624816 41.8355139,26.5022243 C42.2785046,26.0415671 42.5,25.4661455 42.5,24.8135478 C42.5,24.16135 42.2780937,23.5859284 41.8355139,23.1248713 Z M35.5629623,33.1909508 C34.8245074,33.1909508 34.1974166,33.4596675 33.6438837,33.996701 C33.1265132,34.5345343 32.8684444,35.2247203 32.8684444,35.9920825 C32.8684444,36.7598444 33.1269242,37.4124421 33.6434728,37.9494757 C34.1604323,38.4869091 34.8245074,38.793614 35.5625514,38.793614 C36.3010062,38.793614 36.928508,38.5252972 37.4454675,37.9498755 C37.962016,37.4124421 38.2574802,36.7598444 38.2574802,35.9924823 C38.2574802,35.2247203 37.9990004,34.5725225 37.4454675,33.9971009 C36.9654923,33.4592676 36.3010062,33.1909508 35.5629623,33.1909508 Z M24.7544814,37.6295748 C23.9058953,37.6295748 23.1674404,37.9366796 22.5765121,38.5504893 C21.9868167,39.1650988 21.6909416,39.9320611 21.6909416,40.8145875 C21.6909416,41.6975138 21.9864057,42.4648759 22.5769231,43.0790855 C23.1674404,43.6928952 23.9054844,44 24.7548924,44 C25.6034785,44 26.3415225,43.6928952 26.9320398,43.0790855 C27.5229681,42.4648759 27.8180213,41.6975138 27.8180213,40.8145875 C27.8180213,39.9320611 27.5229681,39.1646989 26.9320398,38.5504893 C26.3419334,37.9366796 25.6038895,37.6295748 24.7544814,37.6295748 Z M24.7840689,4 C23.4924921,4 22.4224105,4.4606572 21.4994447,5.38157171 C20.6134632,6.30248623 20.1704725,7.45372934 20.1704725,8.79691296 C20.1704725,10.1404964 20.6134632,11.2529516 21.4994447,12.2122542 C22.3850152,13.1335686 23.4924921,13.5938259 24.7840689,13.5938259 C26.0760568,13.5938259 27.1465492,13.1335686 28.0695151,12.2122542 C28.9550856,11.2913397 29.3980764,10.1400966 29.3980764,8.79731283 C29.3980764,7.45372934 28.9550856,6.34087433 28.0695151,5.38157171 C27.1835336,4.4606572 26.0764677,4 24.7844799,4 L24.7840689,4 Z" fill="#707D87" fill-rule="nonzero"></path>
    </g>
</svg>