<?xml version="1.0" encoding="UTF-8"?>
<svg width="48px" height="48px" viewBox="0 0 48 48" version="1.1" xmlns="http://www.w3.org/2000/svg" xmlns:xlink="http://www.w3.org/1999/xlink">
    <!-- Generator: Sketch 49.1 (51147) - http://www.bohemiancoding.com/sketch -->
    <title>lock</title>
    <desc>Created with Sketch.</desc>
    <defs>
        <path d="M38.5,20.4202382 L38.5,44 L9.5,44 L9.5,20.4202382 L15.3,20.4202382 L15.3,12.8512979 C15.3,7.32047504 19.94,3.24471083 25.45,4.11812248 C29.8,4.70024006 32.7,8.77576898 32.7,13.142592 L32.7,16.0534152 C32.7,16.6355327 32.41,16.9265915 31.83,16.9265915 C31.25,16.9265915 30.96,16.6355327 30.96,16.0534152 L30.96,12.5600038 C30.96,8.77553368 27.48,5.57341643 23.42,5.8649458 C19.94,6.1557693 17.33,9.64918064 17.33,13.142592 L17.33,20.4202382 L38.5,20.4202382 Z M36.76,41.0889415 L36.76,22.1670615 L11.82,22.1670615 L11.82,41.9623532 L35.89,41.9623532 C36.47,41.9623532 36.76,41.6710591 36.76,41.0889415 Z M23.9516667,25.6611787 C26.2716667,25.6611787 28.0116667,27.4077667 27.4316667,29.7367076 C27.4316667,30.9011781 27.1416667,31.7743544 26.2716667,32.6477661 L26.2716667,36.1411774 C26.2716667,37.5964714 25.1116667,38.7611771 23.6616667,38.7611771 C22.2116667,38.7611771 21.0516667,37.5967067 21.0516667,36.1411774 L21.0516667,32.6477661 C20.4716667,31.7743544 19.8916667,30.9011781 19.8916667,29.7367076 C19.8916667,27.4077667 21.6316667,25.6611787 23.9516667,25.6611787 Z M25.4016667,31.1922368 C25.9816667,30.6101193 25.9816667,30.3188252 25.9816667,29.7367076 C25.9816667,28.5722372 25.1116667,27.6990608 23.9516667,27.6990608 C22.7916667,27.6990608 21.9216667,28.5722372 21.9216667,29.7367076 C21.9216667,30.3188252 22.2116667,30.9011781 22.5016667,31.1922368 C22.7916667,31.7743544 23.0816667,32.0656485 23.0816667,32.6477661 L23.0816667,36.1411774 C23.0816667,36.723295 23.3716667,37.0143538 23.9516667,37.0143538 C24.5316667,37.0143538 24.8216667,36.723295 24.8216667,36.1411774 L24.8216667,32.6477661 C24.8216667,32.0656485 25.1116667,31.4832956 25.4016667,31.1922368 Z" id="path-1"></path>
    </defs>
    <g id="lock" stroke="none" stroke-width="1" fill="none" fill-rule="evenodd">
        <mask id="mask-2" fill="white">
            <use xlink:href="#path-1"></use>
        </mask>
        <use fill="#707D87" fill-rule="nonzero" xlink:href="#path-1"></use>
    </g>
</svg>