<?xml version="1.0" encoding="UTF-8"?>
<svg width="48px" height="48px" viewBox="0 0 48 48" version="1.1" xmlns="http://www.w3.org/2000/svg" xmlns:xlink="http://www.w3.org/1999/xlink">
    <!-- Generator: Sketch 49.1 (51147) - http://www.bohemiancoding.com/sketch -->
    <title>search</title>
    <desc>Created with Sketch.</desc>
    <defs>
        <path d="M43.2692308,41.2353879 L33.7307692,32.0046296 C36.1923077,28.9277101 37.7307692,25.2354068 37.7307692,21.2354115 C37.7307692,12.0046532 30.3461538,4.62004658 21.1153846,4.62004658 C11.8846154,4.31235463 4.5,11.6969613 4.5,20.9277196 C4.5,30.1584779 11.8846154,37.5430846 21.1153846,37.5430846 C25.4230769,37.5430846 29.1153846,36.0046248 31.8846154,33.5430893 L41.4230769,43.0815395 C41.7307692,43.3892315 42.0384615,43.3892315 42.3461538,43.3892315 C42.6538462,43.3892315 42.9615385,43.3892315 43.2692308,43.0815395 C43.5769231,42.4661557 43.5769231,41.8507718 43.2692308,41.2353879 Z M6.96153846,20.9277196 C6.96153846,12.9277291 13.4230769,6.77389018 21.1153846,6.77389018 C29.1153846,6.77389018 35.2692308,13.235421 35.2692308,20.9277196 C35.2692308,28.6200182 29.1153846,35.389241 21.1153846,35.389241 C13.1153846,35.389241 6.96153846,28.9277101 6.96153846,20.9277196 Z" id="path-1"></path>
    </defs>
    <g id="search" stroke="none" stroke-width="1" fill="none" fill-rule="evenodd">
        <mask id="mask-2" fill="white">
            <use xlink:href="#path-1"></use>
        </mask>
        <use fill="#707D87" fill-rule="nonzero" xlink:href="#path-1"></use>
    </g>
</svg>