<?xml version="1.0" encoding="UTF-8"?>
<svg width="48px" height="48px" viewBox="0 0 48 48" version="1.1" xmlns="http://www.w3.org/2000/svg" xmlns:xlink="http://www.w3.org/1999/xlink">
    <!-- Generator: Sketch 49.3 (51167) - http://www.bohemiancoding.com/sketch -->
    <title>settings</title>
    <desc>Created with Sketch.</desc>
    <defs></defs>
    <g id="settings" stroke="none" stroke-width="1" fill="none" fill-rule="evenodd">
        <path d="M7.86205273,42.5505 L7.89653609,42.5505 L7.89653609,14.4918 C5.6551645,13.8705833 4,11.7998333 4,9.34943333 C4,6.41588333 6.34481832,4 9.31032042,4 C12.2758225,4 14.6551242,6.41588333 14.6551242,9.34943333 C14.6551242,11.8343333 12.965473,13.9050833 10.6896214,14.5263167 L10.6896214,42.5505 C10.6896214,43.3443333 10.0689376,43.9655 9.27583706,43.9655 C8.4827365,43.9655 7.86205273,43.3443333 7.86205273,42.5505 Z M6.75860195,9.34943333 C6.75860195,10.7299333 7.89653609,11.86885 9.27583706,11.86885 C10.655138,11.86885 11.7930722,10.7299333 11.7930722,9.34943333 C11.7930722,7.96893333 10.655138,6.83003333 9.27583706,6.83003333 C7.89653609,6.83003333 6.75860195,7.96893333 6.75860195,9.34943333 Z M23.9652841,4 C24.7583847,4 25.3790684,4.621225 25.3790684,5.41501333 L25.3790684,19.9102667 C27.65492,20.5314833 29.3445712,22.6021667 29.3445712,25.0871667 C29.3445712,27.572 27.65492,29.6428333 25.3790684,30.264 L25.3790684,42.585 C25.3790684,43.3788333 24.7583847,44 23.9652841,44 C23.1721835,44 22.5514998,43.3788333 22.5514998,42.585 L22.5514998,30.264 C20.3101282,29.6428333 18.6549637,27.572 18.6549637,25.1216667 C18.6549637,22.6713333 20.3101282,20.6005167 22.5514998,19.9792833 L22.5514998,5.41501333 C22.5514998,4.621225 23.1721835,4 23.9652841,4 Z M26.5514693,25.1216667 C26.5514693,23.7066667 25.4135518,22.6021667 24.0342508,22.6021667 C22.6549498,22.6021667 21.5170157,23.7411667 21.5170157,25.1216667 C21.5170157,26.5021667 22.6549498,27.641 24.0342508,27.641 C25.4135518,27.641 26.5514693,26.5021667 26.5514693,25.1216667 Z M40.0684622,33.4736667 C42.3443138,34.0948333 44.033965,36.1656667 43.9994816,38.616 C43.9994816,41.5841667 41.6201799,43.9655 38.6546778,43.9655 C35.6891757,43.9655 33.309874,41.5496667 33.309874,38.616 C33.309874,36.1656667 34.9650385,34.0948333 37.2408935,33.4736667 L37.2408935,5.41501333 C37.2408935,4.621225 37.8615773,4 38.6546778,4 C39.4477784,4 40.0684622,4.621225 40.0684622,5.41501333 L40.0684622,33.4736667 Z M38.6891612,41.1355 C40.0684622,41.1355 41.2063796,39.9965 41.2063796,38.616 C41.2063796,37.2355 40.0684622,36.0966667 38.6891612,36.0966667 C37.3098602,36.0966667 36.1719261,37.2355 36.1719261,38.616 C36.1719261,39.9965 37.3098602,41.1355 38.6891612,41.1355 Z" fill="#78848C" fill-rule="nonzero"></path>
    </g>
</svg>