<?xml version="1.0" encoding="UTF-8"?>
<svg width="48px" height="48px" viewBox="0 0 48 48" version="1.1" xmlns="http://www.w3.org/2000/svg" xmlns:xlink="http://www.w3.org/1999/xlink">
    <!-- Generator: Sketch 49.1 (51147) - http://www.bohemiancoding.com/sketch -->
    <title>star</title>
    <desc>Created with Sketch.</desc>
    <defs>
        <path d="M40.9496254,19.9405769 L39.5210539,19.9405769 L39.5210539,20.5459462 L39.9396254,20.9738846 L40.9496254,19.9405769 Z M40.0679111,19.3393 L39.8716254,20.7868077 L39.9693396,20.8008385 L40.0679111,20.8008385 L40.0679111,19.3393 Z M29.4876254,17.8356692 L28.2096254,18.4892692 L28.5461968,19.1776538 L29.2910539,19.2834692 L29.4876254,17.8356692 Z M24.7850539,8.21377692 L26.0627682,7.56017692 L25.9590539,7.34825385 L25.7953396,7.18046923 L24.7850539,8.21377692 Z M23.0216254,8.21377692 L22.0116254,7.18046923 L21.8476254,7.34825385 L21.7439111,7.56017692 L23.0216254,8.21377692 Z M18.3193396,17.8356692 L18.5156254,19.2834692 L19.2607682,19.1776538 L19.5970539,18.4892692 L18.3193396,17.8356692 Z M7.73876821,19.3393 L7.73876821,20.8008385 L7.83762536,20.8008385 L7.93533964,20.7868077 L7.73876821,19.3393 Z M6.85705393,19.9405769 L5.84676821,18.9069769 L5.4284825,19.3352077 L5.4284825,19.9405769 L6.85705393,19.9405769 Z M7.15105393,20.8426385 L6.1404825,21.8762385 L6.16076821,21.8961154 L7.15105393,20.8426385 Z M14.7924825,28.3596231 L16.2124825,28.5212692 L16.2899111,27.8051154 L15.7824825,27.3061462 L14.7924825,28.3596231 Z M13.6167682,39.1843615 L12.1967682,39.0230077 L12.1881968,39.1033923 L12.1881968,39.1843615 L13.6167682,39.1843615 Z M13.9107682,40.0864231 L12.9004825,41.1200231 L13.3190539,41.5479615 L13.9104825,41.5479615 L13.9104825,40.0864231 L13.9107682,40.0864231 Z M14.7924825,40.3872077 L14.7924825,41.8487462 L15.1481968,41.8487462 L15.4624825,41.6777462 L14.7924825,40.3872077 Z M24.1970539,35.2753308 L24.8673396,33.9847923 L24.1970539,33.6205769 L23.5267682,33.9847923 L24.1970539,35.2753308 Z M33.6019111,40.3872077 L32.9316254,41.6777462 L33.2459111,41.8487462 L33.6019111,41.8487462 L33.6019111,40.3872077 Z M34.7776254,39.1843615 L36.2059111,39.1843615 L36.2059111,39.0601308 L36.1856254,38.9373615 L34.7773396,39.1843615 L34.7776254,39.1843615 Z M33.0141968,28.6604077 L32.0241968,27.6069308 L31.4784825,28.1439 L31.6061968,28.9074077 L33.0141968,28.6604077 Z M40.6559111,21.1434231 L40.0170539,19.8362231 L39.8224825,19.9356077 L39.6656254,20.0896538 L40.6559111,21.1434231 Z M42.3781968,19.9405769 C42.3781968,18.4705615 41.0367682,17.8777615 40.0679111,17.8777615 L40.0679111,20.8008385 C40.1333396,20.8008385 40.0299111,20.8175 39.8721968,20.6964846 C39.7053396,20.5684538 39.5210539,20.3059615 39.5210539,19.9405769 L42.3781968,19.9405769 Z M40.2644825,17.8915 L29.6839111,16.3881615 L29.2910539,19.2834692 L39.8716254,20.7868077 L40.2644825,17.8915 Z M30.7653396,17.1820692 L26.0627682,7.56017692 L23.5073396,8.86737692 L28.2096254,18.4892692 L30.7653396,17.1820692 Z M25.7953396,7.18046923 C25.6481968,7.02993077 25.4273396,6.80923846 25.2013396,6.63093077 C24.9724825,6.45583846 24.5164825,6.15096154 23.9033396,6.15096154 L23.9033396,9.07403846 C23.7825169,9.07528593 23.6627238,9.05121213 23.5513396,9.0033 C23.4927682,8.97699231 23.4696254,8.95653077 23.4870539,8.96968462 C23.5220361,8.99784236 23.5556029,9.02779349 23.5876254,9.05942308 C23.6413396,9.11086923 23.6984825,9.16903846 23.7750539,9.24737692 L25.7950539,7.18046923 L25.7953396,7.18046923 Z M23.9033396,6.15096154 C23.2901968,6.15096154 22.8344825,6.45554615 22.6053396,6.63122308 C22.3796254,6.80894615 22.1584825,7.02993077 22.0116254,7.18046923 L24.0316254,9.24708462 C24.0932451,9.18354206 24.155824,9.1209807 24.2193396,9.05942308 C24.2513621,9.02779349 24.2849289,8.99784236 24.3199111,8.96968462 C24.3373396,8.95623846 24.3141968,8.97699231 24.2559111,9.0033 C24.1443499,9.05129054 24.0243545,9.07536592 23.9033396,9.07403846 L23.9033396,6.15096154 Z M21.7439111,7.56017692 L17.0416254,17.1820692 L19.5970539,18.4892692 L24.2993396,8.86737692 L21.7439111,7.56017692 Z M18.1227682,16.3878692 L7.54219679,17.8915 L7.93533964,20.7868077 L18.5156254,19.2834692 L18.1227682,16.3881615 L18.1227682,16.3878692 Z M7.73876821,17.8777615 C7.12562536,17.8777615 6.66991107,18.1820538 6.44076821,18.3580231 C6.21505393,18.5357462 5.99391107,18.7567308 5.84676821,18.9069769 L7.86733964,20.9738846 C7.92876687,20.9102471 7.99115533,20.8475883 8.0544825,20.7859308 C8.08651523,20.7544046 8.12008167,20.7245513 8.15505393,20.6964846 C8.1724825,20.6830385 8.14933964,20.7037923 8.09105393,20.7298077 C7.97960425,20.7778672 7.85970761,20.8020417 7.73876821,20.8008385 L7.73876821,17.8777615 Z M5.4284825,19.9405769 C5.4284825,20.2629923 5.40276821,21.1209154 6.14076821,21.8759462 L8.16105393,19.8093308 C8.18656574,19.8366917 8.20846615,19.8673523 8.22619679,19.9005308 C8.24978693,19.9434362 8.26775092,19.9893334 8.27962536,20.0370385 C8.28819679,20.0727 8.28819679,20.0905308 8.28733964,20.0750385 C8.28554544,20.030243 8.28497379,19.985405 8.28562536,19.9405769 L5.4284825,19.9405769 Z M6.16076821,21.8961154 L13.8021968,29.4133923 L15.7824825,27.3061462 L8.14105393,19.7891615 L6.16105393,21.8961154 L6.16076821,21.8961154 Z M13.3724825,28.1982692 L12.1970539,39.0230077 L15.0364825,39.3457154 L16.2121968,28.5212692 L13.3724825,28.1982692 Z M12.1884825,39.1846538 C12.1884825,39.5070692 12.1627682,40.3649923 12.9007682,41.1203154 L14.9210539,39.0534077 C14.9465988,39.0807404 14.9685026,39.1114056 14.9861968,39.1446077 C15.0097452,39.1875336 15.027707,39.233425 15.0396254,39.2811154 C15.0484825,39.3170692 15.0481968,39.3349 15.0476254,39.3191154 C15.0457371,39.2743226 15.0450702,39.2294847 15.0456254,39.1846538 L12.1884825,39.1846538 Z M13.9110539,41.5482538 C13.7134414,41.5468231 13.5198347,41.4910957 13.3504825,41.3869 C13.2216254,41.3079769 13.1390539,41.2138538 13.1947682,41.2705615 C13.2127682,41.2889769 13.3684825,41.4582231 13.5890539,41.5935615 C13.8524825,41.7552077 14.1607682,41.8490385 14.4987682,41.8490385 L14.4987682,38.9259615 C14.6963807,38.9273923 14.8899874,38.9831196 15.0593396,39.0873154 C15.1881968,39.1662385 15.2707682,39.2603615 15.2150539,39.2036538 C15.1970539,39.1852385 15.0413396,39.0159923 14.8204825,38.8803615 C14.5457467,38.7120713 14.2312669,38.6238287 13.9110539,38.6251769 L13.9110539,41.5482538 Z M14.4987682,41.8490385 L14.7927682,41.8490385 L14.7927682,40.3875 L14.7927682,38.9259615 L14.4984825,38.9259615 L14.4984825,41.8490385 L14.4987682,41.8490385 Z M15.4630539,41.6780385 L24.8679111,36.5664538 L23.5273396,33.9850846 L14.1224825,39.0966692 L15.4630539,41.6780385 Z M23.5273396,36.5664538 L32.9321968,41.6780385 L34.2727682,39.0966692 L24.8679111,33.9850846 L23.5273396,36.5664538 Z M33.6024825,41.8490385 L33.8964825,41.8490385 L33.8964825,38.9259615 L33.6021968,38.9259615 L33.6021968,41.8490385 L33.6024825,41.8490385 Z M33.8964825,41.8490385 C34.4104825,41.8490385 35.0584825,41.7163308 35.5679111,41.1954385 C36.0770539,40.6742538 36.2064825,40.0113 36.2064825,39.4854385 L33.3493396,39.4854385 C33.3493396,39.5608538 33.3321968,39.3489308 33.5473396,39.1285308 C33.7630539,38.9081308 33.9701968,38.9259615 33.8961968,38.9259615 L33.8961968,41.8490385 L33.8964825,41.8490385 Z M34.7781968,39.4854385 L36.2064825,39.4854385 L36.2064825,39.4851462 L36.2064825,39.4848538 L36.2064825,39.4807615 L36.2064825,39.4477308 L36.2064825,39.1846538 L33.3493396,39.1846538 L33.3493396,39.4854385 L34.7779111,39.4854385 L34.7781968,39.4854385 Z M36.1861968,38.9376538 L34.4227682,28.4137 L31.6064825,28.9077 L33.3699111,39.4316538 L36.1861968,38.9376538 Z M34.0044825,29.7138846 L41.6459111,22.1969 L39.6656254,20.0896538 L32.0241968,27.6069308 L34.0044825,29.7138846 Z M41.2947682,22.4506231 C41.9550539,22.1127154 42.4230539,21.5149462 42.5424825,20.7821308 C42.654929,20.0975594 42.4380557,19.3994977 41.9599111,18.9069769 L39.9396254,20.9738846 C39.7652547,20.7989385 39.6849049,20.5481836 39.7241968,20.3015769 C39.7701968,20.0200846 39.9444825,19.8730538 40.0170539,19.8359308 L41.2947682,22.4506231 Z" id="path-1"></path>
    </defs>
    <g id="star" stroke="none" stroke-width="1" fill="none" fill-rule="evenodd">
        <mask id="mask-2" fill="white">
            <use xlink:href="#path-1"></use>
        </mask>
        <use fill="#707D87" fill-rule="nonzero" xlink:href="#path-1"></use>
    </g>
</svg>