<?xml version="1.0" encoding="UTF-8"?>
<svg width="48px" height="48px" viewBox="0 0 48 48" version="1.1" xmlns="http://www.w3.org/2000/svg" xmlns:xlink="http://www.w3.org/1999/xlink">
    <!-- Generator: Sketch 49.1 (51147) - http://www.bohemiancoding.com/sketch -->
    <title>star-full</title>
    <desc>Created with Sketch.</desc>
    <defs>
        <path d="M43.9998333,19.2631667 C43.9998333,18.9121667 43.6488333,18.5615 42.9471667,18.5615 L30.3155,16.8071667 L24.7015,5.5785 C24.3508333,5.22816667 23.9998333,4.87716667 23.6488333,4.87716667 C23.2981667,4.87716667 22.9471667,5.22816667 22.5961667,5.57883333 L16.9825,16.8071667 L5.0525,18.5615 C4.70183333,18.5615 4.35116667,18.9121667 4.00016667,19.2631667 C4.00016667,19.6138333 4.00016667,19.9648333 4.35116667,20.3158333 L13.4731667,29.0878333 L11.3678333,41.7191667 C11.3678333,42.0701667 11.3678333,42.4211667 11.7188333,42.7718333 C12.0698333,42.7718333 12.0698333,43.1228333 12.4205,43.1228333 L12.7715,43.1228333 L23.9998333,37.1578333 L35.2278333,43.1228333 L35.5788333,43.1228333 C36.2805,43.1228333 36.6315,42.7718333 36.6315,42.0701667 L36.6315,41.7191667 L34.5261667,29.4385 L43.6488333,20.3158333 C43.9998333,20.3158333 43.9998333,19.6138333 43.9998333,19.2631667 Z" id="path-1"></path>
    </defs>
    <g id="star-full" stroke="none" stroke-width="1" fill="none" fill-rule="evenodd">
        <mask id="mask-2" fill="white">
            <use xlink:href="#path-1"></use>
        </mask>
        <use fill="#707D87" fill-rule="nonzero" xlink:href="#path-1"></use>
    </g>
</svg>