<?xml version="1.0" encoding="UTF-8"?>
<svg width="48px" height="48px" viewBox="0 0 48 48" version="1.1" xmlns="http://www.w3.org/2000/svg" xmlns:xlink="http://www.w3.org/1999/xlink">
    <!-- Generator: Sketch 49.3 (51167) - http://www.bohemiancoding.com/sketch -->
    <title>state-info</title>
    <desc>Created with Sketch.</desc>
    <defs></defs>
    <g id="state-info" stroke="none" stroke-width="1" fill="none" fill-rule="evenodd">
        <path d="M24.01725,44 C12.99225,44 4,35.0345 4,24 C4,12.9655125 12.99225,4 24.01725,4 C35.04225,4 44,12.9655125 44,24 C44,35.0345 35.04225,44 24.01725,44 Z M24.01725,6.75862503 C14.5426375,6.75862503 6.82514997,14.4827625 6.82514997,23.9655 C6.82514997,33.44825 14.5426375,41.172375 24.01725,41.172375 C33.491875,41.172375 41.20925,33.44825 41.20925,23.9655 C41.20925,14.4827625 33.491875,6.75862503 24.01725,6.75862503 Z M20.6762,32.79375 L23.9147875,32.79375 L23.9147875,21.7592125 L20.6762,21.7592125 C19.88378,21.7592125 19.2636252,21.138525 19.2636252,20.3454125 C19.2636252,19.552315 19.88378,18.9316255 20.6762,18.9316255 L25.2929125,18.9316255 C26.085325,18.9316255 26.7054875,19.552315 26.7054875,20.3454125 L26.7054875,32.79375 L29.944075,32.79375 C30.7364875,32.79375 31.35665,33.414375 31.35665,34.2075 C31.35665,35.000625 30.7364875,35.62125 29.944075,35.62125 L20.6762,35.62125 C19.88378,35.62125 19.2636252,35.000625 19.2636252,34.2075 C19.2636252,33.414375 19.88378,32.79375 20.6762,32.79375 Z M23.3979,16.585475 C22.1420612,16.585475 21.124,15.5665375 21.124,14.3096125 C21.124,13.0526875 22.1420612,12.03375 23.3979,12.03375 C24.6537375,12.03375 25.6718,13.0526875 25.6718,14.3096125 C25.6718,15.5665375 24.6537375,16.585475 23.3979,16.585475 Z" fill="#707D87" fill-rule="nonzero"></path>
    </g>
</svg>