<?xml version="1.0" encoding="UTF-8"?>
<svg width="48px" height="48px" viewBox="0 0 48 48" version="1.1" xmlns="http://www.w3.org/2000/svg" xmlns:xlink="http://www.w3.org/1999/xlink">
    <!-- Generator: Sketch 49.3 (51167) - http://www.bohemiancoding.com/sketch -->
    <title>state-success</title>
    <desc>Created with Sketch.</desc>
    <defs></defs>
    <g id="state-success" stroke="none" stroke-width="1" fill="none" fill-rule="evenodd">
        <path d="M34.5598728,7.05547407 C35.2148727,7.46863658 35.4217477,8.3294241 35.0079977,8.98361162 C34.5943728,9.63779913 33.7326228,9.84438664 33.0776229,9.43121163 C26.2519984,5.19619277 17.530499,6.19469905 11.8080244,11.8758242 C5.12035742,18.5554994 5.12035742,29.4701246 11.8080244,36.1497498 C18.4957489,42.829375 29.4234982,42.829375 36.1111227,36.1497498 C41.8336222,30.4341247 42.8333722,21.6886244 38.5242475,14.8713243 C38.1106225,14.2171367 38.3173725,13.3563617 38.9723725,12.9431867 C39.6273724,12.5300117 40.4891223,12.7365992 40.9028723,13.3907867 C45.901372,21.3098744 44.763747,31.5014997 38.1106225,38.1467499 C34.2151228,42.037375 29.0787482,44 23.9768735,44 C18.8748739,44 13.7384868,42.037375 9.84309958,38.1467499 C2.05230014,30.3652497 2.05230014,17.6602493 9.84309958,9.87881164 C16.4618241,3.26805272 26.6312484,2.09739894 34.5598728,7.05547407 Z M15.7392491,22.823237 L21.1514363,28.2289871 L36.4916726,9.87717164 C37.0087976,9.29184325 37.9050475,9.22298162 38.4911725,9.70501664 C39.0771725,10.2214816 39.1460474,11.1166867 38.6635475,11.7020117 L22.3579737,31.2244872 C22.0821987,31.5343622 21.7029987,31.7064872 21.3237987,31.7408622 C21.2893362,31.7408622 21.2893237,31.7408622 21.2548612,31.7408622 C20.8756613,31.7408622 20.5309363,31.6031122 20.2551488,31.3277372 L13.7398455,24.820237 C13.1882843,24.269362 13.1882843,23.374112 13.7398455,22.823237 C14.2914055,22.272362 15.1876867,22.272362 15.7392491,22.823237 Z" fill="#707D87" fill-rule="nonzero"></path>
    </g>
</svg>