<?xml version="1.0" encoding="UTF-8"?>
<svg width="48px" height="48px" viewBox="0 0 48 48" version="1.1" xmlns="http://www.w3.org/2000/svg" xmlns:xlink="http://www.w3.org/1999/xlink">
    <!-- Generator: Sketch 49.1 (51147) - http://www.bohemiancoding.com/sketch -->
    <title>sun</title>
    <desc>Created with Sketch.</desc>
    <defs>
        <path d="M42.0869565,31.7875 L34.0869565,31.7875 C33.2173913,26.7125 29.0434783,22.8625 23.826087,22.8625 C18.6086957,22.8625 14.2608696,26.7125 13.5652174,31.7875 L5.73913043,31.7875 C5.04347826,31.7875 4.52173913,32.3125 4.52173913,33.0125 C4.52173913,33.7125 5.04347826,34.2375 5.73913043,34.2375 L42.2608696,34.2375 C42.9565217,34.2375 43.4782609,33.7125 43.4782609,33.0125 C43.3043478,32.3125 42.7826087,31.7875 42.0869565,31.7875 Z M23.826087,25.1375 C27.826087,25.1375 30.9565217,27.9375 31.826087,31.6125 L16,31.6125 C16.6956522,27.9375 20,25.1375 23.826087,25.1375 Z M23.826087,20.7625 C24.5217391,20.7625 25.0434783,20.2375 25.0434783,19.5375 L25.0434783,14.9875 C25.0434783,14.2875 24.5217391,13.7625 23.826087,13.7625 C23.1304348,13.7625 22.6086957,14.2875 22.6086957,14.9875 L22.6086957,19.7125 C22.7826087,20.2375 23.3043478,20.7625 23.826087,20.7625 Z M34.1304348,25.12875 C34.4782609,25.12875 34.6521739,24.95375 35,24.77875 L38.3043478,21.45375 C38.826087,20.92875 38.826087,20.22875 38.3043478,19.87875 C37.7826087,19.35375 37.0869565,19.35375 36.7391304,19.87875 L33.4347826,23.20375 C32.9130435,23.72875 32.9130435,24.42875 33.4347826,24.77875 C33.4347826,25.12875 33.7826087,25.12875 34.1304348,25.12875 Z M13.0869565,24.7875 C13.6086957,25.3125 14.3043478,25.3125 14.6521739,24.7875 C15.173913,24.2625 15.173913,23.5625 14.6521739,23.2125 L11.3478261,19.8875 C11.173913,19.7125 10.826087,19.5375 10.4782609,19.5375 C10.3043478,19.5375 9.95652174,19.7125 9.7826087,19.8875 C9.26086957,20.4125 9.26086957,21.1125 9.7826087,21.4625 L13.0869565,24.7875 Z" id="path-1"></path>
    </defs>
    <g id="sun" stroke="none" stroke-width="1" fill="none" fill-rule="evenodd">
        <mask id="mask-2" fill="white">
            <use xlink:href="#path-1"></use>
        </mask>
        <use fill="#707D87" fill-rule="nonzero" xlink:href="#path-1"></use>
    </g>
</svg>